<?xml version="1.0" encoding="UTF-8"?>
<svg xmlns="http://www.w3.org/2000/svg" xmlns:xlink="http://www.w3.org/1999/xlink" width="468.3pt" height="437.71pt" viewBox="0 0 468.3 437.71" version="1.1">
<g id="surface1">
<path style=" stroke:none;fill-rule:nonzero;fill:rgb(100%,100%,100%);fill-opacity:1;" d="M 466.5 123.660156 C 466.792969 121.855469 464.996094 115.542969 464.996094 115.542969 L 463.496094 101.414063 C 463.496094 101.414063 460.792969 61.746094 436.148438 80.078125 L 425.628906 84.886719 L 418.414063 87.898438 L 408.976563 86.820313 C 369.019531 34.082031 305.714844 0.00390625 234.4375 0.00390625 C 113.5625 0.00390625 15.585938 97.980469 15.585938 218.859375 C 15.585938 241.066406 18.902344 262.507813 25.0625 282.722656 L 20.488281 287.457031 L 12.976563 292.265625 C 12.976563 292.265625 -11.664063 307.300781 6.960938 329.535156 L 33.117188 366.203125 L 38.21875 374.613281 L 42.433594 382.730469 L 46.039063 389.683594 C 46.039063 389.683594 57.460938 403.546875 73.683594 389.683594 L 88.164063 381.628906 C 126.925781 416.488281 178.199219 437.707031 234.4375 437.707031 C 355.304688 437.707031 453.28125 339.722656 453.28125 218.859375 C 453.28125 206.9375 452.316406 195.257813 450.488281 183.863281 L 455.679688 182.570313 C 455.679688 182.570313 470.105469 177.753906 466.203125 160.625 L 466.871094 152.511719 L 466.871094 142.59375 L 468.304688 131.773438 C 468.304688 131.773438 466.203125 125.460938 466.5 123.660156 "/>
<path style=" stroke:none;fill-rule:nonzero;fill:rgb(87.5%,1.599121%,4.299927%);fill-opacity:1;" d="M 421.996094 126.289063 C 421.671875 125.761719 421.320313 125.257813 420.941406 124.777344 C 419.792969 123.492188 418.847656 122.109375 418.070313 120.636719 C 417.90625 120.222656 417.726563 119.832031 417.523438 119.453125 C 417.003906 118.316406 416.542969 117.160156 416.1875 115.945313 C 415.285156 114.179688 414.429688 112.351563 412.011719 112.605469 C 411.5 111.277344 410.976563 109.949219 410.457031 108.621094 C 410.046875 108.546875 409.632813 108.484375 409.21875 108.425781 L 409.21875 108.421875 C 407.648438 106.171875 406.085938 103.925781 404.511719 101.675781 C 404.601563 101.257813 404.660156 100.816406 404.652344 100.316406 C 403.386719 96.28125 401.066406 93.023438 397.546875 90.648438 C 397.085938 90.320313 396.710938 89.9375 396.382813 89.535156 C 396.386719 88.660156 396.390625 87.785156 396.390625 86.90625 C 396.53125 84.3125 395.277344 82.628906 392.976563 81.625 L 392.976563 81.632813 L 392.976563 81.617188 C 392.066406 81.160156 391.160156 80.691406 390.257813 80.234375 C 387.925781 77.503906 385.605469 74.769531 383.28125 72.039063 C 380.878906 71.300781 379.414063 69.140625 377.242188 68.066406 C 376.621094 67.996094 376.003906 67.96875 375.386719 67.9375 C 375.234375 67.75 375.078125 67.5625 374.925781 67.375 C 373.988281 66.285156 373.050781 65.191406 372.113281 64.101563 C 372.132813 64.03125 372.15625 63.976563 372.167969 63.902344 C 372.144531 63.597656 372.136719 63.296875 372.113281 62.996094 C 367.105469 58.714844 362.472656 53.9375 356.480469 50.949219 L 356.472656 50.941406 C 355.691406 49.800781 354.886719 48.710938 353.238281 49.105469 C 352.121094 48.105469 350.996094 47.105469 349.871094 46.109375 C 347.769531 44.828125 345.679688 43.550781 343.589844 42.273438 C 340.234375 40.484375 337.996094 37.042969 334.179688 35.941406 C 333.339844 35.011719 332.28125 34.710938 331.066406 34.90625 C 330.671875 34.625 330.246094 34.566406 329.789063 34.726563 C 326.84375 33.191406 323.890625 31.652344 320.949219 30.109375 C 318.988281 29.210938 317.035156 28.300781 315.074219 27.402344 C 312.933594 25.027344 310.167969 24.328125 307.09375 24.503906 C 305.167969 19.777344 300.820313 20.738281 297.089844 20.246094 L 297.085938 20.253906 L 297.085938 20.246094 C 296.394531 20.320313 295.710938 20.40625 295.027344 20.503906 C 290.929688 17.117188 285.980469 17.597656 281.171875 17.429688 C 280.714844 17.007813 280.285156 16.507813 279.761719 16.152344 C 274.074219 12.3125 267.066406 16.667969 261.320313 13.203125 C 260.542969 12.871094 259.765625 12.695313 258.980469 12.613281 C 256.097656 11.890625 253.214844 11.410156 250.328125 12.816406 C 250.066406 12.90625 249.808594 13.03125 249.53125 13.203125 C 249.089844 13.203125 248.667969 13.296875 248.257813 13.476563 C 247.910156 13.265625 247.539063 13.179688 247.152344 13.222656 C 239.472656 9.503906 231.421875 12.144531 223.546875 11.972656 C 222.789063 11.957031 222.011719 13.527344 221.25 14.371094 C 220.175781 13.996094 219.105469 13.625 218.027344 13.261719 C 214.8125 11.46875 211.5625 11.640625 208.304688 13.128906 C 204.078125 13.636719 199.867188 14.136719 195.65625 14.636719 C 187.582031 15 180.011719 17.371094 172.597656 20.386719 C 171.882813 20.929688 171.152344 21.476563 170.429688 22.019531 C 169.425781 22.40625 168.417969 22.796875 167.398438 23.191406 C 163.246094 22.050781 160.535156 24.140625 158.269531 27.238281 L 158.269531 27.246094 C 153.378906 26.828125 150.066406 30.941406 145.570313 31.660156 C 143.914063 32.234375 142.261719 32.804688 140.597656 33.367188 C 136.21875 33.597656 132.964844 36.042969 129.875 38.816406 C 125.886719 39.28125 123.546875 42.695313 120.199219 44.289063 C 118.257813 45.769531 116.320313 47.246094 114.382813 48.726563 C 110.308594 51.804688 104.953125 53.027344 101.824219 57.460938 L 101.824219 57.46875 C 100.273438 58.851563 98.722656 60.246094 97.183594 61.628906 C 95.660156 61.882813 94.820313 62.828125 94.542969 64.316406 C 91.773438 67.230469 89.011719 70.136719 86.246094 73.046875 C 82.816406 77.203125 79.375 81.371094 75.957031 85.535156 C 73.179688 87.183594 72.5625 90.46875 70.53125 92.6875 C 66.992188 94.011719 68.15625 96.609375 68.476563 98.980469 C 67.617188 100.046875 66.882813 100.914063 66.882813 100.914063 C 65.589844 101.183594 64.089844 101.058594 63.359375 102.492188 C 62.277344 103.074219 61.539063 103.878906 60.96875 104.792969 L 56.59375 111.585938 C 55.210938 112.453125 54.585938 113.703125 54.726563 115.332031 C 53.574219 116.046875 53.179688 117.074219 53.386719 118.386719 L 50.097656 131.480469 L 40.445313 145.097656 C 40.285156 145.195313 40.121094 145.289063 39.941406 145.375 C 39.707031 145.847656 39.476563 146.328125 39.234375 146.8125 L 37.78125 153.019531 C 37.214844 153.363281 36.792969 153.828125 36.550781 154.464844 C 36.835938 154.917969 37.015625 155.371094 37.125 155.816406 L 36.261719 159.492188 L 32.90625 175.023438 C 32.636719 175.785156 32.488281 176.523438 32.515625 177.242188 L 31.460938 183.308594 C 31.117188 183.839844 30.851563 184.480469 30.726563 185.308594 C 30.777344 185.824219 30.800781 186.347656 30.84375 186.863281 L 30.726563 187.492188 L 27.492188 199.996094 C 27.371094 200.269531 27.304688 200.582031 27.261719 200.890625 L 25.847656 206.347656 C 24.640625 210.136719 22.726563 213.816406 24.335938 218.042969 L 26.011719 228.746094 L 26.011719 229.855469 L 26.722656 233.28125 L 28.058594 248.105469 L 32.484375 260.699219 L 32.664063 263.441406 L 34.785156 268.109375 L 38.292969 279.460938 C 37.4375 280.863281 38.15625 282.820313 38.027344 284.464844 C 38.527344 284.488281 39.03125 284.511719 39.535156 284.53125 L 41.484375 289.953125 C 41.28125 290.226563 41.070313 290.503906 40.871094 290.765625 C 41.261719 291.570313 41.792969 292.140625 42.414063 292.550781 L 43.390625 295.257813 C 41.3125 299.238281 47.09375 302.25 46.53125 306.046875 C 48.140625 306.921875 49.746094 307.796875 51.351563 308.667969 L 51.960938 313.230469 L 52.171875 313.453125 C 51.914063 315.113281 52.105469 316.539063 54.96875 316.359375 L 57.292969 318.769531 L 57.695313 320.003906 L 61.921875 324.503906 C 61.839844 324.917969 61.855469 325.425781 62.027344 326.058594 L 62.027344 326.050781 C 64.160156 329.632813 66.589844 333.117188 66.195313 337.617188 C 66.097656 337.964844 66.105469 338.328125 66.210938 338.667969 C 67.109375 338.769531 68 338.878906 68.894531 338.980469 C 69.675781 341.378906 72.28125 342.933594 72.082031 345.796875 C 73.199219 345.816406 74.128906 345.46875 74.710938 344.445313 L 74.710938 344.433594 C 74.773438 344.382813 74.804688 344.304688 74.855469 344.246094 L 75.75 345.617188 C 75.328125 346.496094 75.054688 347.507813 74.984375 348.703125 C 75.570313 351.132813 77.488281 352.5625 79.09375 354.21875 C 78.933594 354.34375 78.773438 354.421875 78.613281 354.566406 C 78.214844 357.273438 79.511719 359.492188 80.730469 361.722656 C 82.5625 363.941406 84.394531 366.152344 86.238281 368.359375 C 87.070313 370.039063 88.410156 371.167969 90.117188 371.890625 C 90.335938 372.933594 90.449219 374.054688 91.695313 374.484375 C 92.738281 375.332031 93.78125 376.179688 94.816406 377.023438 C 96.527344 378.132813 98.238281 379.242188 99.957031 380.339844 L 107.6875 387.433594 C 108.515625 388.347656 109.398438 389.199219 110.394531 389.902344 L 110.433594 389.957031 L 117.164063 395.324219 C 120.640625 398.0625 125.878906 398.15625 129.054688 401.339844 C 132.363281 401.867188 134.886719 401.03125 135.78125 397.425781 C 135.847656 396.699219 135.78125 395.992188 135.554688 395.285156 C 134.921875 393.8125 134.105469 392.617188 133.140625 391.636719 L 133.167969 391.613281 L 133.058594 391.542969 C 132.050781 390.519531 130.875 389.746094 129.550781 389.199219 L 129.480469 389.144531 L 129.328125 389.101563 C 128.324219 388.699219 127.246094 388.421875 126.097656 388.257813 L 125.921875 388.210938 L 119.214844 385.886719 L 114.871094 382.03125 C 114.785156 381.871094 114.644531 381.726563 114.40625 381.609375 L 111.894531 379.292969 L 111.691406 378.765625 C 111.574219 378.132813 111.332031 377.550781 110.929688 377.042969 C 109.8125 376.039063 108.679688 375.097656 107.261719 375.183594 L 107.261719 375.175781 L 100.398438 365.8125 L 100.398438 360.1875 L 101.335938 354.335938 L 100.949219 352.105469 C 101.359375 352.316406 101.765625 352.542969 102.171875 352.753906 C 101.894531 355.394531 102.964844 356.964844 105.730469 357.222656 C 105.117188 355.265625 103.710938 353.953125 102.203125 352.707031 C 101.25 350.933594 100.300781 349.179688 99.34375 347.402344 C 98.832031 342.417969 96.152344 338.441406 93.359375 334.523438 C 93.199219 334.164063 93.085938 333.796875 92.972656 333.414063 L 276.148438 248.941406 L 382.394531 167.132813 L 393.40625 148.386719 C 393.78125 148.488281 394.152344 148.609375 394.511719 148.734375 L 394.511719 148.730469 L 394.574219 148.722656 C 394.714844 148.839844 394.867188 148.953125 395.019531 149.070313 L 428.953125 139.972656 C 427.664063 134.890625 425.667969 130.167969 421.996094 126.289063 "/>
<path style=" stroke:none;fill-rule:nonzero;fill:rgb(0%,56.898499%,23.899841%);fill-opacity:1;" d="M 443.121094 240.519531 C 444.703125 236.777344 444.058594 233.058594 442.988281 229.351563 C 443.015625 228.398438 443.046875 227.449219 443.089844 226.496094 C 444.238281 223.695313 442.757813 220.917969 443.027344 218.125 C 443.417969 213.347656 443.824219 208.5625 443.097656 203.777344 C 443.492188 199.75 442.054688 196.183594 440.394531 192.664063 C 440.277344 191.679688 440.164063 190.695313 440.054688 189.703125 C 441.71875 183.179688 440.074219 177.066406 437.683594 171.0625 C 436.703125 167.449219 435.730469 163.832031 434.753906 160.230469 L 434.75 160.222656 L 434.753906 160.222656 C 434.683594 155.820313 434.472656 151.445313 431.828125 147.65625 L 431.824219 147.636719 C 431.433594 145 428.953125 139.972656 428.953125 139.972656 L 395.011719 149.070313 C 395.023438 149.109375 395.035156 149.144531 395.050781 149.1875 L 393.019531 149.59375 L 186.367188 259.042969 L 107.148438 308.792969 L 102.0625 309.988281 C 100.949219 309.554688 99.789063 309.246094 98.558594 309.097656 C 95.949219 309.394531 93.574219 309.859375 93.378906 312.003906 L 90.386719 312.691406 L 123.671875 366.53125 C 123.671875 366.53125 192.945313 419.480469 276.671875 396.277344 L 312.101563 385.65625 L 328.390625 376.09375 L 335.828125 370.777344 L 338.652344 368.652344 L 348.570313 362.628906 L 366.992188 346.148438 C 366.992188 346.148438 375.886719 333.230469 378.167969 332.175781 C 380.449219 331.109375 394.617188 310.222656 394.617188 310.222656 L 408.429688 291.8125 C 408.429688 291.8125 415.867188 272.929688 416.21875 272.265625 C 416.570313 271.609375 417.265625 265.148438 416.21875 260.988281 C 415.925781 259.835938 415.847656 257.433594 415.871094 254.59375 C 422.097656 234.601563 423.601563 214.132813 422.539063 193.410156 C 422.820313 194.226563 423.128906 195.027344 423.433594 195.839844 C 424.253906 197.574219 425.496094 199.117188 425.890625 201.050781 C 427.675781 203.980469 425.71875 206.449219 424.945313 209.066406 C 423.003906 215.527344 424.921875 221.964844 425.195313 228.410156 C 426.097656 232.042969 427.867188 235.667969 425.261719 239.304688 C 423.269531 243.859375 424.265625 248.652344 424.203125 253.347656 C 425.5 255.355469 424.625 257.871094 424.777344 260.152344 C 423.386719 270.792969 422.738281 281.601563 418.105469 291.554688 C 417.457031 292.171875 416.960938 293.035156 416.730469 294.347656 C 416.621094 295.011719 416.640625 295.679688 416.808594 296.332031 C 416.828125 296.398438 416.863281 296.445313 416.890625 296.503906 C 416.609375 296.851563 416.332031 297.199219 416.050781 297.539063 C 414.445313 298.320313 414.023438 299.777344 413.652344 301.277344 C 413.257813 301.320313 412.867188 301.429688 412.496094 301.625 C 410.433594 303.085938 409.804688 305.148438 410.039063 307.566406 C 410.09375 307.777344 410.175781 307.976563 410.234375 308.179688 C 408.773438 309.21875 407.726563 310.617188 406.710938 312.089844 C 406.246094 312.066406 405.769531 312.078125 405.285156 312.183594 C 401.449219 313.960938 399.382813 317.140625 398.316406 321.09375 C 398.386719 322.792969 397.691406 324.25 397.011719 325.699219 C 393.738281 330.339844 391.089844 335.261719 390.449219 341.128906 C 390.183594 341.191406 389.925781 341.253906 389.65625 341.308594 C 386.53125 342.785156 384.171875 344.878906 383.75 348.566406 C 383.863281 348.746094 383.960938 348.917969 384.066406 349.082031 C 381.460938 350.625 380.117188 353.214844 378.851563 355.867188 C 377.785156 356.3125 377.664063 357.261719 377.609375 358.246094 C 376.621094 358.148438 375.753906 358.4375 374.957031 359.003906 C 373.546875 360.589844 371.859375 361.820313 370.027344 362.839844 C 369.292969 363.402344 368.691406 364.089844 368.242188 364.890625 C 367.875 365.660156 367.546875 366.433594 367.324219 367.226563 C 364.722656 369.285156 362.011719 371.230469 359.816406 373.6875 L 355.464844 377 C 355.433594 377.011719 355.410156 377.011719 355.386719 377.023438 C 351.683594 379.074219 348.519531 381.777344 345.453125 384.601563 L 332.648438 394.535156 C 331.183594 394.808594 329.933594 395.417969 328.816406 396.242188 L 317.128906 401.488281 L 308.390625 404.109375 C 306.085938 404.476563 303.800781 404.886719 301.871094 406.0625 L 301.863281 406.0625 C 301.863281 406.0625 284.203125 411.355469 283.773438 411.46875 C 283.761719 411.46875 283.710938 411.480469 283.671875 411.503906 C 283.226563 411.621094 282.789063 411.777344 282.363281 411.96875 C 279.890625 412.867188 275.074219 414.664063 275.074219 414.664063 L 275.027344 414.671875 C 273.890625 414.070313 272.667969 413.953125 271.390625 414.21875 C 270.273438 414.496094 269.398438 415.136719 268.558594 415.832031 C 268.453125 415.855469 268.359375 415.898438 268.25 415.929688 L 262.578125 416.976563 C 262.578125 416.976563 255.46875 417.0625 251.839844 417.113281 C 251.183594 417.082031 250.535156 417.101563 249.886719 417.15625 C 249.855469 417.15625 249.824219 417.15625 249.808594 417.167969 C 249.746094 417.167969 249.625 417.175781 249.492188 417.199219 C 248.914063 417.261719 248.34375 417.347656 247.769531 417.453125 C 245.035156 417.863281 240.589844 418.59375 240.589844 418.59375 L 219.976563 415.371094 C 212.617188 414.058594 205.261719 412.730469 197.789063 412.199219 C 194.164063 412.855469 192.0625 414.765625 192.359375 418.6875 C 192.980469 420.019531 194.050781 420.78125 195.441406 421.152344 C 195.628906 421.117188 195.820313 421.128906 196.007813 421.117188 C 197.03125 423.316406 198.574219 425.167969 200.285156 426.890625 C 200.617188 426.972656 200.949219 427.003906 201.300781 426.984375 C 201.585938 426.730469 201.914063 426.507813 202.261719 426.308594 C 202.261719 426.308594 205.472656 427.714844 207.382813 428.410156 C 208.378906 429.550781 209.785156 429.816406 211.371094 429.691406 C 215.730469 430.839844 220.109375 431.453125 224.511719 430.832031 L 224.582031 430.832031 L 225.234375 430.703125 C 225.636719 430.640625 226.039063 430.574219 226.4375 430.484375 L 229.3125 429.941406 L 229.324219 429.941406 L 233.136719 430.121094 C 233.136719 430.121094 233.46875 430.152344 233.984375 430.207031 C 236.199219 431.433594 238.640625 430.710938 240.988281 430.832031 C 242.597656 431.390625 243.941406 430.554688 245.347656 430.046875 C 245.949219 429.917969 246.507813 429.796875 246.910156 429.699219 C 247.9375 430.449219 248.824219 430.175781 249.679688 429.59375 C 251.191406 429.613281 252.777344 429.644531 253.363281 429.265625 C 253.878906 428.929688 254.820313 429.109375 255.847656 429.265625 C 256.800781 430.304688 257.710938 429.828125 258.621094 429.265625 C 259.351563 428.992188 260.332031 428.882813 261.332031 428.8125 C 262.539063 429.109375 263.648438 428.824219 264.734375 428.386719 C 266.347656 427.914063 268.597656 428.316406 269.957031 427.363281 C 271.359375 427.789063 272.769531 428.527344 274.144531 427.070313 C 274.765625 427.101563 275.378906 427.132813 275.988281 427.164063 L 276.050781 427.164063 C 278.058594 427.261719 280.046875 427.261719 281.996094 426.835938 C 282.085938 426.824219 282.171875 426.816406 282.238281 426.792969 C 282.300781 426.785156 282.398438 426.75 282.484375 426.71875 C 283.363281 426.5 284.21875 426.167969 285.066406 425.726563 C 286.1875 425.230469 287.367188 424.691406 288.226563 424.308594 C 289.597656 423.707031 290.960938 423.101563 292.328125 422.515625 C 294.316406 422.527344 296.289063 422.492188 298.070313 421.964844 C 298.46875 421.871094 298.851563 421.722656 299.21875 421.539063 C 300.117188 421.140625 300.960938 420.558594 301.707031 419.757813 C 301.722656 419.746094 308.390625 418.285156 308.980469 418.203125 C 310.046875 418.019531 311.085938 417.726563 312.050781 417.222656 L 312.0625 417.207031 L 316.078125 415.285156 L 318.195313 413.363281 C 318.679688 413.078125 319.109375 412.699219 319.476563 412.199219 L 320.390625 411.363281 L 320.398438 411.355469 C 320.40625 411.355469 326.097656 409.273438 326.589844 408.035156 C 328.097656 408.351563 329.480469 407.402344 330.859375 406.410156 L 334.53125 404.59375 C 334.734375 404.59375 334.945313 404.582031 335.15625 404.613281 L 335.164063 404.601563 C 335.796875 404.085938 336.484375 403.652344 337.210938 403.261719 L 342.722656 401.488281 L 343.910156 400.335938 C 345.75 399.375 347.382813 398.09375 348.429688 395.925781 L 348.433594 395.925781 L 348.417969 395.925781 L 348.433594 395.925781 C 356.722656 394.691406 359.230469 385.570313 366.378906 382.789063 C 367.285156 383.003906 367.820313 382.578125 368.121094 381.765625 C 369.953125 380.214844 372.820313 379.980469 373.757813 377.296875 C 374.386719 376.863281 375.015625 376.433594 375.640625 375.996094 C 377.074219 374.707031 378.515625 373.398438 379.964844 372.101563 L 379.972656 372.085938 C 380.707031 371.019531 381.441406 369.941406 382.179688 368.863281 C 382.660156 368.390625 383.140625 367.914063 383.613281 367.4375 C 389.273438 363.472656 394.847656 359.417969 397.976563 352.949219 C 398.824219 351.925781 399.6875 350.902344 400.558594 349.875 C 401.75 349.589844 402.082031 348.617188 402.375 347.613281 C 405.046875 345.945313 406.734375 343.535156 407.695313 340.566406 C 409.070313 338.546875 410.449219 336.53125 411.832031 334.523438 C 413.921875 332.484375 415.394531 330.074219 416.179688 327.253906 C 416.386719 327.03125 416.527344 326.808594 416.628906 326.589844 C 419.921875 321.726563 422.21875 316.527344 421.890625 310.441406 C 422.835938 308.515625 423.78125 306.613281 424.726563 304.703125 C 426.878906 304.089844 427.328125 302.386719 427.449219 300.476563 C 427.675781 295.710938 431.136719 292.089844 432.035156 287.5625 C 433.230469 286.917969 433.371094 285.808594 433.28125 284.613281 L 433.285156 284.601563 C 434.8125 283.1875 435.164063 281.433594 434.753906 279.445313 C 436.515625 276.734375 436.90625 273.582031 437.472656 270.5 C 437.527344 269.820313 437.59375 269.15625 437.664063 268.476563 C 439.160156 267.191406 439.097656 265.425781 439.105469 263.683594 L 439.109375 263.671875 C 439.492188 263.003906 439.617188 262.316406 439.652344 261.621094 C 441.308594 254.667969 440.148438 247.226563 443.121094 240.519531 L 443.121094 240.53125 "/>
<path style=" stroke:none;fill-rule:nonzero;fill:rgb(100%,100%,100%);fill-opacity:1;" d="M 153.023438 76.183594 L 153.441406 76 C 153.335938 76.117188 153.179688 76.160156 153.023438 76.183594 M 385.386719 255.015625 C 384.355469 254.910156 384.304688 254.542969 383.789063 253.460938 C 383.328125 252.382813 383.21875 251.761719 382.449219 250.367188 C 381.730469 248.972656 381.207031 247.84375 381.109375 246.964844 C 380.949219 246.035156 381.472656 246.183594 381.472656 246.183594 C 381.472656 246.183594 380.59375 245.210938 380.59375 244.746094 C 380.59375 244.230469 380.847656 243.867188 380.074219 243.351563 C 379.300781 242.832031 379.402344 241.957031 379.613281 241.492188 C 379.765625 240.972656 379.921875 240.507813 379.511719 239.988281 C 379.097656 239.527344 377.59375 238.238281 377.132813 237.675781 C 376.667969 237.15625 376.257813 237.570313 375.484375 238.078125 C 374.710938 238.550781 374.089844 238.394531 373.9375 237.78125 C 373.726563 237.210938 373.472656 237.050781 373.007813 237.050781 C 372.539063 237.050781 372.234375 236.800781 372.023438 236.28125 C 371.871094 235.765625 371.5625 235.667969 371.042969 235.617188 C 370.582031 235.617188 370.070313 235.40625 369.859375 234.9375 C 369.652344 234.421875 369.089844 233.703125 367.6875 233.238281 C 366.402344 232.824219 366.089844 232.613281 365.78125 232.152344 C 365.480469 231.738281 365.320313 229.464844 365.367188 228.082031 C 365.417969 226.6875 365.015625 225.398438 364.652344 224.574219 C 364.34375 223.738281 364.652344 222.859375 364.652344 222.195313 C 364.652344 221.523438 364.597656 221.472656 364.34375 220.535156 C 364.03125 219.617188 364.234375 218.167969 364.550781 217.453125 C 364.800781 216.667969 366.296875 215.75 366.96875 215.179688 C 367.636719 214.609375 367.539063 213.785156 367.335938 213.105469 C 367.125 212.441406 367.6875 212.03125 367.898438 211.617188 C 368.105469 211.152344 368.054688 209.761719 367.898438 209.34375 C 367.6875 208.984375 367.074219 209.242188 366.660156 209.394531 C 366.242188 209.550781 365.730469 210.167969 365.730469 210.167969 L 326.570313 207.699219 L 325.28125 189.175781 L 318.109375 180.351563 L 324.765625 180.246094 C 324.765625 180.246094 324.503906 174.417969 324.503906 172.296875 C 324.503906 170.128906 324.253906 168.53125 323.734375 168.324219 C 323.214844 168.121094 322.648438 167.398438 322.910156 166.835938 C 323.167969 166.265625 323.320313 165.800781 322.910156 165.335938 C 322.488281 164.867188 322.546875 164.816406 322.082031 163.941406 C 321.667969 163.117188 322.285156 162.597656 321.613281 162.03125 C 320.898438 161.46875 320.691406 161.101563 320.746094 159.96875 C 320.789063 158.882813 320.273438 158.730469 320.175781 157.644531 C 320.074219 156.5625 321.203125 156.300781 321.980469 155.328125 C 322.804688 154.398438 322.03125 153.363281 321.515625 152.230469 C 320.941406 151.089844 320.59375 150.992188 320.59375 150.109375 C 320.59375 149.183594 320.273438 149.292969 319.554688 149.394531 C 318.832031 149.496094 318.109375 149.183594 317.644531 148.5625 C 317.234375 147.941406 317.234375 148.152344 316.359375 148.101563 C 315.480469 148.046875 314.550781 147.066406 313.105469 146.449219 C 311.605469 145.78125 311.046875 144.847656 309.855469 144.125 C 308.613281 143.40625 307.535156 143.042969 307.636719 142.378906 C 307.738281 141.753906 307.636719 141.601563 306.5 141.703125 C 305.367188 141.804688 305.269531 142.578125 303.769531 142.839844 C 302.222656 143.097656 301.753906 142.015625 300.777344 141.804688 C 299.847656 141.601563 299.582031 142.53125 298.605469 142.996094 C 297.628906 143.460938 296.382813 143.355469 295.714844 142.890625 C 294.996094 142.425781 294.582031 142.167969 293.449219 142.222656 C 292.3125 142.222656 291.484375 142.890625 290.457031 143.097656 C 289.421875 143.300781 288.859375 143.195313 288.804688 142.628906 C 288.75 142.113281 288.699219 141.652344 288.1875 140.726563 C 287.664063 139.796875 286.066406 139.117188 285.34375 138.453125 C 284.625 137.835938 284.210938 136.75 283.332031 136.285156 C 282.511719 135.828125 282.917969 135.714844 283.179688 134.738281 C 283.488281 133.761719 282.816406 133.554688 281.683594 133.191406 C 280.554688 132.828125 280.445313 132.617188 279.925781 133.042969 C 279.414063 133.453125 278.4375 133.34375 277.398438 133.453125 C 276.367188 133.554688 275.851563 133.296875 275.4375 132.261719 C 275.023438 131.238281 274.71875 131.488281 273.742188 131.59375 C 272.707031 131.691406 271.828125 131.027344 271.058594 130.8125 C 270.273438 130.609375 270.855469 129.894531 270.335938 129.425781 C 269.867188 129.015625 269.609375 128.90625 268.992188 129.269531 C 268.371094 129.683594 267.957031 129.992188 267.390625 129.992188 C 266.824219 129.992188 266.773438 128.90625 266.050781 128.390625 C 265.382813 127.871094 265.117188 127.46875 264.710938 126.640625 C 264.300781 125.816406 263.46875 126.589844 262.847656 126.015625 C 262.234375 125.449219 261.71875 124.160156 261.5625 122.917969 C 261.402344 121.6875 261.046875 121.421875 259.757813 121.222656 C 258.46875 121.015625 258.003906 122.453125 256.863281 122.769531 C 255.679688 123.078125 254.644531 122.414063 253.824219 122.042969 C 252.996094 121.6875 252.6875 121.167969 252.273438 120.246094 C 251.863281 119.261719 250.878906 119.160156 250.316406 119.160156 L 249.441406 118.757813 C 249.128906 118.523438 248.738281 118.214844 248.144531 117.867188 C 247.460938 117.488281 246.816406 117.308594 246.148438 117.222656 L 246.117188 117.222656 C 245.542969 117.152344 244.941406 117.144531 244.273438 117.144531 C 243.65625 117.144531 243.207031 117.34375 242.871094 117.609375 L 235.519531 117.609375 C 235.207031 117.222656 234.734375 117.175781 234.269531 117.609375 L 232.914063 117.117188 C 232.789063 116.9375 232.632813 116.910156 232.40625 116.933594 L 229.878906 116.007813 C 229.804688 115.609375 229.613281 115.429688 229.355469 115.300781 L 228.476563 114.117188 C 228.648438 113.8125 228.859375 113.460938 228.953125 113.066406 C 229.207031 112.035156 228.746094 111.988281 227.816406 111.679688 C 227.242188 111.484375 226.777344 111.371094 226.332031 111.269531 L 224.15625 109.867188 C 224.101563 109.191406 224.253906 108.628906 223.738281 108.578125 C 223.527344 108.558594 223.402344 108.773438 223.289063 109.023438 L 221.753906 107.523438 C 221.746094 107.496094 221.742188 107.472656 221.730469 107.445313 C 221.484375 106.785156 220.910156 106.65625 220.457031 106.679688 L 218.738281 106.519531 C 218.429688 106.242188 217.980469 106.308594 217.539063 106.332031 L 216.675781 106.203125 L 216.828125 104.039063 C 216.929688 103.628906 216.765625 103.5625 216.507813 103.527344 L 215.53125 102.027344 C 215.53125 101.359375 215.53125 100.9375 215.023438 100.640625 L 214.027344 99.390625 C 213.992188 99.34375 213.96875 99.296875 213.9375 99.238281 C 213.90625 99.164063 213.859375 99.140625 213.816406 99.132813 L 212.660156 97.1875 C 212.636719 97.054688 212.5625 96.945313 212.464844 96.867188 L 211.519531 95.269531 C 211.519531 94.882813 211.320313 94.671875 211 94.5625 L 208.703125 91.378906 C 208.761719 91.265625 208.8125 91.152344 208.882813 91.03125 C 209.246094 90.445313 208.847656 90.097656 208.257813 89.917969 L 207.945313 88.894531 C 207.933594 88.75 207.90625 88.609375 207.882813 88.449219 C 207.9375 88.34375 207.996094 88.246094 208.0625 88.140625 C 208.570313 87.316406 207.640625 87.628906 207.386719 87.0625 L 207.972656 85.550781 C 208.0625 85.480469 208.160156 85.410156 208.257813 85.363281 C 208.882813 85.046875 208.929688 84.636719 208.628906 83.863281 L 209.394531 82.523438 C 209.914063 82.015625 209.761719 81.511719 209.308594 81.203125 L 209.191406 79.382813 C 209.183594 79.179688 209.101563 79.035156 209.003906 78.917969 L 207.609375 75.515625 C 207.773438 74.953125 207.707031 74.332031 207.074219 74.214844 L 206.519531 72.40625 C 206.539063 72.246094 206.507813 72.085938 206.355469 71.890625 L 207.335938 69.195313 C 207.398438 69.121094 207.453125 69.027344 207.488281 68.90625 C 207.546875 68.695313 207.597656 68.519531 207.664063 68.339844 L 208.726563 66.222656 C 209.394531 65.339844 209.550781 64.363281 209.605469 63.636719 C 209.605469 62.554688 209.65625 61.789063 209.246094 60.488281 C 209.21875 60.414063 209.183594 60.351563 209.152344 60.300781 L 209.082031 59.761719 L 208.929688 58.640625 L 208.929688 56.8125 C 209.042969 56.554688 209.160156 56.308594 209.246094 56.058594 C 209.445313 55.28125 209.8125 54.917969 208.929688 54.09375 L 207.894531 52.363281 C 207.84375 52.230469 207.785156 52.085938 207.695313 51.929688 C 207.632813 51.785156 207.535156 51.6875 207.425781 51.601563 L 207.277344 51.347656 L 207.027344 51.410156 C 206.441406 51.253906 205.679688 51.507813 205.222656 51.824219 C 204.816406 52.152344 204.640625 52.449219 204.46875 52.796875 L 202.695313 55.128906 L 201.785156 54.773438 C 201.523438 54.519531 201.242188 54.171875 200.835938 53.738281 C 200.058594 52.859375 199.234375 53.113281 198.046875 53.273438 C 197.8125 53.292969 197.617188 53.324219 197.433594 53.355469 L 196.261719 53.515625 C 196.042969 53.492188 195.808594 53.429688 195.519531 53.273438 C 194.8125 52.894531 194.039063 53.394531 193.449219 53.894531 L 191.773438 54.125 C 191.5625 54.003906 191.308594 53.875 190.976563 53.785156 C 189.792969 53.429688 189.128906 53.9375 188.601563 54.402344 C 188.527344 54.488281 188.429688 54.539063 188.335938 54.59375 L 186.28125 54.875 C 185.199219 54.875 185.144531 55.089844 184.425781 55.523438 L 182.230469 56.285156 C 182.140625 56.269531 182.054688 56.246094 181.953125 56.210938 C 180.863281 55.796875 180.253906 56.621094 179.269531 56.519531 C 178.238281 56.421875 178.136719 57.144531 177.875 57.808594 L 177.351563 58.207031 C 176.921875 58.316406 176.359375 58.285156 176.066406 58.480469 C 175.601563 58.792969 173.847656 60.183594 172.96875 60.859375 C 172.144531 61.484375 169.8125 63.546875 169.179688 64.441406 L 167.449219 65.757813 C 167.019531 65.757813 166.75 65.855469 166.566406 66.070313 L 164.710938 66.714844 C 164.535156 66.695313 164.347656 66.6875 164.144531 66.6875 C 162.859375 66.632813 162.242188 66.890625 162.140625 67.609375 L 161.25 68.203125 C 160.796875 68.191406 160.257813 68.445313 159.875 69.125 L 156.972656 71.066406 C 156.050781 71.171875 155.789063 71.488281 155.585938 72.308594 C 155.375 73.085938 154.910156 73.699219 154.390625 73.699219 C 153.96875 73.699219 153.859375 74.527344 153.71875 75.253906 L 152.988281 76.183594 C 152.648438 76.210938 152.246094 76.089844 151.972656 75.867188 C 151.453125 75.503906 150.730469 75.199219 149.804688 75.09375 C 148.878906 75.042969 147.066406 75.199219 145.726563 75.347656 C 144.386719 75.503906 143.972656 76.6875 143.972656 77.261719 C 143.972656 77.882813 143.257813 78.554688 142.425781 79.273438 C 141.59375 79.996094 141.652344 80.410156 140.980469 81.695313 C 140.359375 82.945313 139.535156 83.558594 138.871094 83.453125 C 138.140625 83.398438 137.683594 83.605469 137.476563 84.117188 C 137.261719 84.636719 136.492188 84.488281 135.667969 84.488281 C 134.898438 84.488281 134.378906 85.566406 133.449219 85.980469 C 132.472656 86.449219 131.945313 86.660156 130.148438 86.851563 C 128.335938 87.0625 129.011719 85.363281 129.421875 84.488281 C 130.148438 82.886719 126.535156 83.863281 126.171875 83.863281 C 125.246094 83.914063 124.578125 83.863281 123.546875 83.558594 C 122.457031 83.238281 121.476563 83.089844 120.652344 82.773438 C 119.828125 82.472656 118.949219 82.734375 117.664063 82.832031 C 116.425781 82.945313 116.0625 82.832031 115.445313 82.363281 C 114.777344 81.957031 113.949219 82.417969 113.277344 82.832031 C 112.5625 83.238281 111.472656 83.039063 110.699219 82.945313 L 110.433594 82.945313 C 110.953125 83.816406 111.574219 84.945313 111.988281 85.511719 C 112.757813 86.546875 125.65625 106.621094 127.203125 109.761719 C 128.757813 112.964844 129.835938 115.078125 130.355469 116.007813 C 130.636719 116.503906 130.988281 117.210938 131.273438 117.855469 L 130.617188 120.964844 C 130.429688 121.058594 130.269531 121.175781 130.144531 121.3125 L 127.625 123.160156 L 126.484375 126.429688 C 125.808594 127.101563 125.246094 127.980469 125.296875 128.90625 C 125.34375 129.742188 125.515625 132.515625 125.589844 135.449219 L 124.128906 142.59375 C 124.128906 142.59375 123.703125 144.59375 123.5 146.191406 C 123.441406 146.230469 123.378906 146.277344 123.335938 146.34375 C 122.976563 146.757813 122.617188 147.277344 123.390625 147.6875 C 123.441406 149.03125 124.988281 150.78125 125.609375 152.328125 C 125.46875 153.152344 125.375 153.929688 125.957031 154.421875 C 126.152344 156.753906 126.074219 159.914063 126.074219 159.914063 C 125.554688 160.125 125.09375 160.589844 125.195313 161.308594 C 125.234375 161.855469 125.273438 162.226563 125.46875 162.574219 L 120.449219 168.210938 C 119.976563 168.355469 119.953125 168.851563 120.035156 169.414063 C 120.0625 169.601563 120.074219 169.773438 120.085938 169.925781 L 119.511719 172.65625 C 119.371094 172.71875 119.203125 172.765625 119.003906 172.765625 C 118.179688 172.765625 117.304688 173.175781 117.402344 174.105469 C 117.472656 174.664063 117.429688 174.992188 117.4375 175.269531 C 117.429688 175.8125 117.355469 176.457031 117.144531 176.992188 C 116.953125 177.15625 116.976563 177.386719 117.117188 177.675781 C 117.328125 178.722656 118.519531 179.84375 118.117188 180.351563 C 117.625 180.960938 118.71875 183.265625 119.511719 184.472656 C 120.308594 185.671875 118.71875 186.871094 118.847656 188.296875 C 118.4375 188.65625 118.644531 189.226563 118.328125 189.945313 C 118.019531 190.667969 117.035156 192.265625 116.839844 192.988281 C 116.632813 193.664063 116.886719 194.171875 117.402344 195.410156 C 117.914063 196.65625 118.847656 198.769531 119.523438 200.46875 C 120.238281 202.171875 121.171875 204.496094 121.53125 205.320313 C 121.839844 206.089844 122.71875 207.234375 123.75 207.285156 C 123.960938 207.289063 124.191406 207.269531 124.425781 207.234375 L 126.132813 210.117188 L 125.527344 211.113281 C 124.933594 212.113281 126.332031 212.136719 125.527344 212.722656 C 124.730469 213.308594 125.597656 213.59375 124.730469 214.121094 C 123.859375 214.652344 124.730469 216.722656 124.730469 216.722656 L 123.902344 218.730469 C 123.359375 218.617188 122.878906 218.730469 122.667969 219.234375 C 122.4375 219.554688 122.5625 219.871094 119.210938 222.34375 C 115.867188 224.804688 119.933594 223.484375 118.011719 225.851563 C 117.996094 225.863281 117.980469 225.886719 117.957031 225.902344 C 116.117188 228.175781 117.855469 226.496094 117.097656 228.027344 C 116.160156 228.121094 115.496094 228.441406 114.414063 229.425781 C 114.089844 229.675781 113.972656 229.773438 113.929688 229.886719 C 113.308594 230.511719 113.140625 230.914063 112.96875 231.335938 C 112.757813 231.84375 112.5625 232.824219 113.277344 232.824219 C 112.15625 236.183594 113.847656 233.101563 113.898438 233.015625 L 113.910156 233.027344 L 115.800781 235.765625 C 115.753906 236.175781 115.753906 236.535156 115.753906 236.894531 C 115.851563 237.15625 115.90625 237.519531 115.90625 237.820313 C 115.960938 238.757813 116.007813 239.882813 116.269531 240.359375 C 116.351563 240.488281 116.492188 240.644531 116.652344 240.816406 L 116.691406 240.847656 C 117.082031 241.257813 117.617188 241.734375 118.230469 242.261719 C 118.230469 242.261719 119.289063 243.351563 119.945313 244.425781 C 120.046875 244.671875 120.109375 244.914063 120.132813 245.15625 C 120.238281 246.140625 119.882813 247.84375 120.808594 248.253906 C 121.742188 248.664063 122.511719 249.078125 123.488281 249.382813 C 123.671875 249.460938 123.933594 249.5 124.214844 249.554688 L 125.527344 250.386719 L 125.699219 250.15625 C 125.75 250.261719 125.789063 250.378906 125.765625 250.527344 C 125.65625 251.453125 125.457031 251.402344 124.941406 251.605469 C 124.367188 251.816406 124.058594 252.015625 124.113281 252.535156 C 124.214844 252.996094 124.320313 253.664063 124.988281 253.875 C 125.609375 254.074219 125.808594 254.859375 125.765625 255.679688 C 125.710938 256.550781 125.96875 256.867188 125.808594 257.433594 C 125.65625 258.007813 125.921875 258.980469 126.535156 259.390625 C 127.152344 259.8125 127.152344 262.128906 127.101563 262.953125 C 127.050781 263.773438 126.683594 263.882813 127.152344 264.503906 C 127.617188 265.117188 128.039063 265.328125 127.929688 265.847656 C 127.773438 266.410156 127.515625 266.621094 128.039063 267.390625 C 128.492188 268.175781 129.011719 268.476563 128.957031 269.355469 C 128.902344 270.234375 128.1875 270.644531 128.1875 271.109375 C 128.238281 271.574219 128.546875 271.828125 129.0625 271.933594 C 129.632813 272.078125 129.574219 272.398438 129.632813 273.117188 C 129.734375 273.792969 129.421875 273.582031 130.710938 274.257813 C 131.945313 274.976563 133.089844 276.214844 133.96875 276.730469 C 134.84375 277.300781 135.148438 276.996094 135.253906 277.914063 C 135.359375 278.847656 136.027344 279.46875 136.851563 279.46875 C 137.628906 279.46875 137.992188 279.777344 138.710938 280.503906 C 139.433594 281.222656 140.464844 282.351563 140.464844 282.351563 L 135.199219 289.0625 C 135.199219 289.0625 134.484375 289.742188 135.410156 290.246094 C 136.339844 290.765625 137.476563 291.695313 137.886719 292.15625 C 138.300781 292.574219 139.277344 294.589844 138.605469 294.988281 C 138.300781 295.148438 138.246094 295.617188 138.246094 296.289063 C 138.246094 296.957031 137.992188 297.261719 136.960938 297.472656 C 135.871094 297.632813 134.84375 297.726563 134.28125 297.886719 C 133.703125 297.980469 133.089844 298.035156 133.136719 298.660156 C 133.191406 299.28125 133.554688 299.535156 134.164063 299.535156 C 134.84375 299.535156 134.84375 299.429688 134.84375 300.253906 C 134.84375 301.089844 134.582031 301.554688 134.945313 302.0625 C 135.308594 302.589844 135.617188 302.894531 135.617188 303.507813 C 135.617188 304.078125 134.945313 304.238281 134.433594 304.542969 C 133.191406 305.261719 134.28125 307.375 135.308594 307.84375 C 136.289063 308.359375 137.316406 308.929688 138.402344 309.445313 C 139.484375 309.953125 140.359375 310.269531 140.359375 310.789063 C 140.359375 311.308594 139.953125 311.507813 139.390625 311.972656 C 138.871094 312.4375 138.457031 312.585938 138.457031 313.515625 C 138.457031 314.445313 138.246094 316.664063 138.710938 317.433594 C 139.125 318.164063 140.105469 318.164063 140.730469 318.164063 L 141.707031 318.164063 L 146.550781 325.804688 C 146.550781 325.804688 147.015625 326.007813 147.015625 326.988281 C 147.015625 327.960938 147.066406 333.59375 147.066406 333.59375 C 147.066406 333.59375 147.328125 333.636719 147.792969 334.46875 C 148.308594 335.347656 148.824219 336.011719 149.035156 336.941406 C 149.285156 337.820313 149.550781 338.800781 149.550781 339.679688 C 149.492188 340.609375 149.445313 341.632813 149.550781 342.101563 C 149.648438 342.5625 150.265625 343.082031 150.992188 343.757813 C 151.660156 344.371094 152.4375 344.835938 152.4375 345.605469 C 152.4375 346.390625 152.023438 346.441406 152.488281 347.316406 C 153.003906 348.25 153.367188 348.546875 153.160156 349.378906 C 152.957031 350.148438 152.4375 350.617188 152.796875 351.238281 C 153.160156 351.851563 154.035156 352.421875 154.140625 353.613281 C 154.246094 354.84375 153.933594 355.003906 154.390625 355.359375 C 154.910156 355.78125 155.015625 355.824219 154.757813 357.328125 C 154.550781 358.867188 154.035156 361.351563 154.292969 362.015625 C 154.550781 362.695313 154.601563 362.84375 155.320313 362.84375 C 156.050781 362.84375 156.050781 363.105469 156.253906 363.617188 C 156.464844 364.078125 157.234375 364.183594 158.882813 364.183594 C 160.488281 364.183594 162.753906 363.984375 164.300781 363.519531 C 165.855469 363.054688 168.585938 362.535156 169.253906 362.535156 L 169.726563 362.535156 C 170.03125 359.796875 172.351563 358.511719 173.230469 358.257813 C 173.230469 356.914063 172.609375 355.519531 173.59375 355.003906 L 178.28125 352.941406 L 178.75 348.609375 C 178.75 348.609375 179.429688 347.265625 180.355469 347.316406 C 181.273438 347.316406 181.484375 348.078125 183.144531 347.003906 C 184.734375 345.925781 185.515625 346.019531 186.128906 345.925781 C 186.75 345.871094 188.601563 345.207031 188.859375 343.90625 C 189.070313 342.667969 189.84375 339.320313 189.945313 338.539063 C 190.097656 337.765625 190.203125 337.152344 191.386719 337.660156 C 192.632813 338.230469 194.339844 338.589844 194.230469 339.320313 C 194.179688 340.039063 194.179688 340.652344 195.054688 340.652344 C 195.929688 340.652344 196.242188 340.25 197.117188 341.273438 C 197.992188 342.3125 199.644531 344.835938 200.476563 344.941406 C 201.351563 345.046875 205.632813 344.742188 207.488281 344.742188 C 209.292969 344.742188 213.167969 344.6875 214.816406 344.6875 C 216.460938 344.6875 217.753906 344.992188 218.949219 345.257813 C 220.132813 345.511719 220.800781 345.097656 221.417969 345.605469 C 221.984375 346.125 222.449219 346.695313 223.539063 346.644531 C 224.617188 346.644531 224.566406 346.28125 225.855469 347.363281 C 227.101563 348.449219 227.664063 348.96875 227.351563 349.324219 C 227.101563 349.6875 226.574219 350.722656 227.101563 351.136719 C 227.609375 351.546875 227.96875 352.066406 227.816406 352.527344 C 227.609375 352.941406 227.816406 353.5625 228.542969 354.074219 C 229.261719 354.585938 229.726563 354.84375 229.570313 355.824219 C 229.417969 356.859375 228.898438 357.222656 229.363281 357.84375 C 229.828125 358.402344 230.398438 358.773438 230.761719 359.441406 C 231.121094 360.15625 231.277344 360.726563 231.433594 361.511719 C 231.582031 362.324219 232.25 362.789063 232.25 362.789063 C 232.25 362.789063 233.027344 361.089844 233.027344 359.746094 C 233.027344 358.402344 233.339844 356.703125 233.441406 356.1875 C 233.539063 355.625 234.371094 354.335938 235.09375 353.765625 C 235.765625 353.152344 236.792969 351.492188 236.742188 350.828125 C 236.695313 350.203125 237.363281 348.757813 237.980469 348.25 C 238.648438 347.785156 239.273438 345.925781 239.371094 345.152344 C 239.480469 344.328125 240.097656 342.878906 240.769531 342.722656 C 241.492188 342.5625 242.832031 342.207031 243.449219 342.457031 C 244.121094 342.667969 244.535156 343.027344 244.785156 343.441406 C 245 343.90625 245.664063 343.546875 246.085938 343.136719 C 246.449219 342.722656 246.960938 342.523438 246.960938 342.523438 L 264.300781 342.457031 C 264.300781 342.457031 265.789063 341.898438 265.6875 343.136719 C 265.53125 344.425781 265.480469 345.671875 266.359375 345.925781 C 267.238281 346.179688 268.007813 346.539063 268.371094 347.316406 C 268.785156 348.078125 269.148438 348.078125 269.148438 348.078125 L 269.246094 347.824219 L 277.707031 320.226563 L 277.816406 308.148438 L 285.761719 296.957031 L 289.785156 286.804688 C 302.835938 285.089844 315.734375 282.660156 328.480469 279.523438 L 349.53125 279.933594 L 351.539063 281.222656 L 369.652344 293.089844 C 369.652344 293.089844 369.601563 293.757813 369.292969 294.113281 C 369.035156 294.484375 369.035156 294.988281 369.132813 295.507813 C 369.242188 296.078125 369.554688 296.289063 369.554688 296.289063 L 369.242188 301.089844 L 373.777344 297.675781 L 374.503906 298.191406 L 376.050781 296.800781 L 370.277344 291.019531 L 378.15625 274.957031 C 378.167969 274.976563 378.304688 275.03125 378.992188 275.03125 C 379.972656 275.03125 379.972656 274.300781 380.023438 273.421875 C 380.132813 272.597656 379.765625 271.988281 379.300781 271.671875 C 378.886719 271.363281 378.683594 270.953125 378.683594 270.953125 C 378.683594 270.953125 383.425781 257.539063 383.847656 256.550781 C 384.253906 255.578125 384.617188 256.148438 385.644531 256.148438 C 386.683594 256.148438 386.421875 255.058594 385.386719 255.015625 "/>
<path style=" stroke:none;fill-rule:nonzero;fill:rgb(100%,88.198853%,0%);fill-opacity:1;" d="M 118.949219 360.6875 L 119.230469 360.558594 C 119.265625 360.601563 119.3125 360.640625 119.332031 360.707031 C 119.195313 360.75 119.074219 360.695313 118.949219 360.6875 M 461.203125 134.46875 C 461.273438 134.445313 461.34375 134.425781 461.421875 134.394531 C 461.378906 134.363281 461.332031 134.304688 461.289063 134.234375 L 462.136719 131.902344 L 462.089844 130.632813 L 458.839844 128.46875 L 456.421875 124.652344 L 456.414063 124.640625 L 455.382813 122.261719 L 454.558594 120.804688 L 456.46875 112.277344 C 456.574219 112.132813 456.640625 111.949219 456.59375 111.714844 L 456.957031 109.121094 L 456.171875 104.75 L 456.171875 104.480469 L 456.011719 103.894531 L 455.078125 99.8125 C 455.097656 99.671875 455.117188 99.527344 455.136719 99.386719 C 455.054688 99.230469 454.964844 99.085938 454.882813 98.933594 L 451.136719 91.175781 C 451.394531 90.980469 451.101563 90.648438 450.996094 90.355469 C 450.972656 90.351563 450.9375 90.347656 450.910156 90.335938 L 449.550781 85.234375 C 449.566406 85.21875 449.589844 85.1875 449.601563 85.167969 C 449.550781 85.089844 449.511719 85.015625 449.472656 84.941406 C 449.3125 84.550781 449.144531 84.230469 448.933594 84.03125 L 448.277344 82.917969 C 448.28125 82.832031 448.25 82.773438 448.175781 82.753906 L 448.164063 82.734375 L 448.140625 82.742188 C 447.917969 82.707031 447.355469 82.953125 446.222656 83.726563 L 438.765625 87.558594 C 438.765625 87.5 438.761719 87.4375 438.710938 87.371094 C 438.640625 87.414063 438.570313 87.457031 438.480469 87.5 C 437.484375 87.578125 437.433594 88.503906 436.515625 88.300781 C 436.539063 88.417969 436.574219 88.5625 436.550781 88.703125 C 434.652344 89.484375 433.292969 89.992188 433.292969 89.992188 L 433.285156 89.992188 C 432.894531 90.058594 432.558594 90.203125 432.378906 90.585938 L 431.742188 90.992188 L 428.019531 92.769531 L 424.265625 92.699219 L 423.671875 92.84375 L 414.246094 93.628906 L 413.695313 92.996094 C 413.527344 92.777344 413.246094 92.886719 412.949219 93.078125 L 411.941406 93.183594 L 407.917969 93.605469 L 401.480469 94.273438 L 396.628906 96.90625 L 389.628906 101.992188 C 388.410156 102.820313 387.574219 102.597656 387.246094 103.621094 C 387.257813 103.640625 387.265625 103.664063 387.285156 103.6875 L 384.265625 105.875 L 354.246094 121.257813 L 336.394531 131.742188 C 336.019531 131.667969 335.851563 132.007813 335.410156 132.324219 L 335.144531 132.472656 C 335.097656 132.496094 335.050781 132.523438 334.996094 132.542969 L 335.011719 132.542969 L 326.660156 137.453125 C 326.59375 137.414063 326.527344 137.382813 326.460938 137.320313 C 325.503906 137.820313 324.550781 138.335938 324.0625 138.964844 C 323.359375 139.261719 322.835938 139.601563 322.367188 139.972656 L 315.054688 143.476563 C 314.683594 143.375 314.324219 143.25 313.851563 143.476563 C 313.300781 144.054688 313.265625 144.074219 312.472656 144.253906 C 312.398438 144.296875 312.328125 144.339844 312.246094 144.378906 C 311.933594 144.550781 311.632813 144.71875 311.324219 144.894531 C 310.988281 145.058594 310.640625 145.214844 310.757813 145.511719 C 310.679688 145.554688 310.601563 145.589844 310.53125 145.640625 L 310.519531 145.640625 L 300.886719 150.246094 C 300.617188 150.285156 300.34375 150.351563 299.996094 150.625 C 299.84375 150.714844 299.695313 150.804688 299.542969 150.890625 L 297.523438 151.816406 C 297.273438 151.832031 297.019531 151.835938 296.746094 151.855469 C 296.289063 152.109375 295.820313 152.367188 295.355469 152.632813 C 294.898438 152.886719 294.4375 153.140625 293.972656 153.402344 C 293.160156 153.773438 292.460938 153.785156 291.539063 154.460938 C 291.46875 154.503906 291.394531 154.546875 291.3125 154.59375 C 291.167969 154.441406 290.972656 154.441406 290.722656 154.632813 C 290.035156 155.007813 289.339844 155.402344 288.648438 155.78125 C 287.203125 156.773438 286.066406 156.714844 284.609375 157.746094 L 284.117188 157.96875 C 284.082031 157.90625 284.050781 157.839844 284.011719 157.777344 C 283.9375 157.820313 283.859375 157.863281 283.78125 157.90625 C 283.246094 158.207031 282.699219 158.507813 282.171875 158.808594 C 281.960938 158.921875 281.753906 159.023438 281.570313 159.144531 L 280.863281 159.460938 C 280.984375 159.285156 281.070313 159.101563 280.992188 158.871094 C 280.761719 159.003906 280.53125 159.125 280.304688 159.257813 C 280.367188 158.964844 280.257813 158.609375 280.019531 158.21875 C 279.785156 158.351563 279.558594 158.476563 279.324219 158.601563 C 279.21875 158.328125 279.050781 158.234375 278.839844 158.285156 C 278.4375 158.871094 279.800781 158.894531 280.074219 159.394531 C 279.464844 159.257813 278.558594 160.144531 278.078125 159.605469 C 278.367188 160.015625 277.878906 160.835938 276.605469 161.324219 C 275.421875 161.902344 273.800781 162.566406 273.25 162.90625 C 273.175781 162.945313 273.097656 162.988281 273.019531 163.03125 C 272.152344 163.375 271.339844 163.53125 270.367188 164.226563 C 270.058594 164.339844 269.734375 164.527344 269.40625 164.726563 L 266.78125 165.9375 L 266.777344 165.9375 C 266.765625 165.9375 266.753906 165.949219 266.742188 165.949219 L 261.933594 168.167969 C 261.71875 168.007813 261.351563 168.371094 261.027344 168.578125 L 260.753906 168.703125 L 259.464844 169.402344 C 259.144531 169.53125 258.902344 169.371094 258.546875 169.636719 C 257.457031 169.898438 257.414063 170.4375 256.679688 170.085938 C 256.375 170.460938 256.824219 170.515625 257.027344 170.726563 L 251.371094 173.808594 C 251.148438 173.882813 250.941406 173.964844 250.707031 174.019531 C 250.75 174.0625 250.757813 174.09375 250.773438 174.136719 L 248.609375 175.316406 C 248.46875 175.320313 248.339844 175.335938 248.167969 175.4375 C 248.078125 175.308594 247.980469 175.183594 247.808594 175.34375 C 247.203125 175.679688 246.582031 176.027344 245.96875 176.367188 C 245.664063 176.546875 245.355469 176.714844 245.039063 176.890625 C 244.824219 176.960938 244.878906 177.101563 244.9375 177.242188 C 244.71875 177.375 244.480469 177.507813 244.246094 177.632813 C 244.09375 177.71875 243.941406 177.808594 243.796875 177.886719 C 243.753906 177.816406 243.703125 177.738281 243.667969 177.664063 C 242.898438 178.101563 242.125 178.523438 241.359375 178.949219 C 241.472656 179.242188 241.042969 179.382813 240.789063 179.574219 C 240.679688 179.621094 240.578125 179.671875 240.488281 179.738281 L 238.761719 180.65625 C 238.101563 180.859375 237.910156 181.027344 237.480469 181.34375 L 236.71875 181.746094 C 236.53125 181.746094 236.445313 181.820313 236.351563 181.945313 L 235.1875 182.570313 C 235.085938 182.578125 234.996094 182.578125 234.898438 182.570313 C 234.363281 182.867188 233.824219 183.167969 233.277344 183.46875 C 233.148438 183.53125 232.996094 183.582031 232.925781 183.367188 C 232.835938 183.242188 232.746094 183.121094 232.574219 183.277344 C 232.09375 183.722656 231.699219 184.183594 230.851563 184.53125 C 230.769531 184.578125 230.695313 184.617188 230.621094 184.660156 C 230.234375 185.074219 228.921875 185.234375 229.140625 185.816406 L 228.6875 186.058594 C 228.6875 186.058594 228.679688 186.046875 228.667969 186.046875 C 228.445313 186.179688 228.214844 186.308594 227.980469 186.433594 L 227.324219 186.796875 C 227.316406 186.804688 227.304688 186.8125 227.292969 186.820313 C 227.082031 186.933594 226.890625 187.046875 226.683594 187.15625 L 223.371094 189.015625 C 223.332031 188.941406 223.289063 188.859375 223.246094 188.789063 C 223.089844 188.871094 222.9375 188.960938 222.785156 189.042969 C 222.707031 189.089844 222.625 189.132813 222.546875 189.175781 C 222.472656 189.386719 222.304688 189.574219 222.085938 189.742188 L 220.730469 190.496094 C 220.265625 190.726563 219.792969 190.949219 219.453125 191.214844 C 219.222656 191.335938 218.984375 191.46875 218.757813 191.59375 C 218.769531 191.628906 218.757813 191.660156 218.757813 191.691406 C 218.351563 191.960938 217.792969 192.324219 217.152344 192.734375 C 216.828125 192.734375 216.128906 192.746094 216.347656 193.222656 C 216.25 193.273438 216.179688 193.328125 216.09375 193.371094 C 215.839844 193.390625 215.691406 193.03125 215.40625 193.179688 C 214.667969 193.71875 214.058594 193.8125 213.429688 193.984375 C 213.347656 194.023438 213.269531 194.066406 213.199219 194.105469 C 212.234375 194.472656 211.285156 194.773438 210.554688 195.886719 C 208.167969 196.289063 199.152344 202.054688 195.660156 204.324219 C 195.128906 204.296875 194.703125 204.847656 194.253906 205.246094 L 193.910156 205.496094 C 193.710938 205.605469 193.5 205.648438 193.257813 205.5625 C 192.804688 205.816406 192.335938 206.070313 191.871094 206.332031 C 191.800781 206.382813 191.726563 206.417969 191.652344 206.460938 C 191.90625 206.855469 191.714844 207.125 191.21875 207.308594 C 191.230469 207.332031 191.238281 207.359375 191.261719 207.390625 L 188.269531 209.519531 C 188.179688 209.53125 188.101563 209.601563 188.027344 209.695313 L 186.644531 210.675781 C 186.414063 210.703125 186.191406 210.703125 185.929688 210.847656 C 184.792969 211.300781 183.832031 211.558594 183.265625 212.046875 C 183.300781 212.125 183.347656 212.199219 183.390625 212.277344 C 183.445313 212.480469 183.347656 212.652344 183.070313 212.765625 C 182.449219 213.105469 181.832031 213.453125 181.210938 213.800781 C 180.832031 213.332031 179.984375 214.476563 179.582031 214.109375 C 178.636719 214.425781 178.8125 215.054688 177.855469 215.371094 C 177.777344 215.417969 177.699219 215.453125 177.625 215.496094 C 177.671875 215.582031 177.714844 215.65625 177.757813 215.730469 C 177.324219 216.0625 177.644531 216.59375 177.214844 216.921875 C 176.605469 217.015625 176.921875 217.363281 176.914063 217.628906 L 176.308594 218.066406 C 175.949219 218.230469 175.429688 218.359375 175.480469 218.65625 L 175.027344 218.972656 C 174.957031 218.835938 174.835938 218.878906 174.695313 218.929688 C 174.320313 219.144531 173.933594 219.355469 173.550781 219.574219 C 173.070313 219.671875 172.347656 220.605469 172.039063 220.117188 C 172.113281 220.714844 171.484375 221.117188 170.675781 221.484375 C 170.253906 221.679688 170.355469 222.035156 169.878906 222.226563 C 169.8125 222.269531 169.730469 222.300781 169.65625 222.355469 C 169.695313 222.429688 169.742188 222.503906 169.789063 222.574219 C 169.742188 222.660156 169.695313 222.746094 169.640625 222.820313 L 168.753906 223.453125 C 168.226563 223.070313 167.261719 224.179688 166.550781 224.382813 C 165.992188 223.886719 166.007813 225.109375 165.164063 225.164063 C 165.085938 225.207031 165.011719 225.25 164.9375 225.289063 C 164.582031 225.765625 163.824219 226.113281 162.761719 226.8125 C 162.679688 226.855469 162.605469 226.898438 162.527344 226.929688 C 162.644531 227.164063 162.339844 227.277344 162.1875 227.414063 C 162.117188 227.457031 162.042969 227.507813 161.96875 227.554688 C 161.621094 227.910156 161.0625 228.210938 161.0625 228.652344 C 160.839844 228.777344 160.605469 228.90625 160.375 229.03125 C 160.238281 228.820313 159.996094 229.011719 159.78125 229.0625 C 159.554688 229.191406 159.320313 229.328125 159.09375 229.457031 C 158.710938 229.730469 157.808594 229.867188 158.425781 230.429688 C 158.121094 230.363281 157.765625 230.480469 157.371094 230.710938 C 157.402344 230.839844 157.476563 230.976563 157.496094 231.09375 L 157.101563 231.367188 C 156.804688 231.125 156.378906 231.546875 156.3125 231.894531 L 156.0625 232.066406 C 155.757813 231.960938 155.429688 231.90625 154.964844 232.363281 C 154.546875 232.953125 153.789063 233.449219 153.144531 233.980469 C 153.046875 234.0625 153.007813 234.105469 152.992188 234.144531 L 146.628906 238.46875 L 133.703125 249.023438 C 133.636719 249.070313 133.5625 249.109375 133.480469 249.160156 C 133.480469 249.160156 133.46875 249.171875 133.464844 249.183594 L 132.304688 249.882813 C 132.242188 249.898438 132.171875 249.914063 132.097656 249.933594 C 131.792969 250.101563 131.492188 250.285156 131.179688 250.441406 C 131.191406 250.480469 131.199219 250.527344 131.199219 250.558594 L 122.902344 255.621094 C 122.359375 255.660156 121.792969 255.789063 121.742188 256.316406 L 121.0625 256.558594 C 121.015625 256.550781 120.960938 256.527344 120.925781 256.472656 C 120.851563 256.519531 120.769531 256.558594 120.691406 256.613281 C 120.527344 256.761719 120.417969 256.644531 120.34375 256.503906 C 120.027344 256.683594 119.722656 256.855469 119.410156 257.035156 C 119.214844 257.140625 119.019531 257.246094 118.824219 257.363281 L 118.546875 257.457031 L 117.113281 257.402344 L 111.414063 256.261719 C 111.394531 256.230469 111.375 256.1875 111.351563 256.15625 C 111.007813 255.640625 110.46875 255.800781 109.90625 256.03125 L 103.832031 255.152344 C 103.773438 255.09375 103.699219 255.101563 103.613281 255.132813 L 103.167969 255.070313 C 102.910156 254.648438 102.316406 255.335938 102.097656 254.761719 C 102.023438 254.804688 101.945313 254.847656 101.863281 254.890625 C 101.554688 254.648438 101.199219 254.542969 100.796875 254.605469 C 100.75 254.519531 100.707031 254.445313 100.660156 254.371094 C 100.179688 254.6875 99.824219 254.605469 99.59375 254.074219 C 99.445313 253.914063 99.230469 253.980469 99.109375 253.75 C 98.800781 253.929688 98.492188 254.097656 98.175781 254.269531 C 98.027344 254.363281 97.871094 254.445313 97.71875 254.519531 C 97.46875 254.511719 97.214844 254.496094 96.894531 254.6875 C 96.371094 254.519531 95.742188 254.707031 95.039063 255.132813 C 94.964844 255.175781 94.882813 255.21875 94.792969 255.257813 C 93.878906 256.011719 93.25 255.734375 92.367188 256.324219 L 84.089844 259.328125 C 84.054688 259.296875 84.019531 259.265625 83.996094 259.222656 C 83.769531 259.351563 83.535156 259.476563 83.308594 259.601563 C 83.265625 259.53125 83.210938 259.453125 83.179688 259.382813 C 82.789063 259.59375 82.410156 259.8125 82.019531 260.023438 C 81.542969 260.195313 80.984375 260.628906 80.464844 260.933594 L 79.886719 261.207031 C 79.695313 261.261719 79.515625 261.28125 79.355469 261.21875 C 79.285156 261.25 79.210938 261.292969 79.121094 261.347656 C 78.308594 261.800781 77.503906 262.253906 76.683594 262.707031 L 75.160156 263.417969 C 75.132813 263.398438 75.109375 263.367188 75.085938 263.3125 C 74.617188 263.578125 74.164063 263.828125 73.699219 264.082031 C 73.683594 264.09375 73.675781 264.105469 73.671875 264.113281 L 70.730469 265.488281 C 70.679688 265.507813 70.628906 265.519531 70.574219 265.53125 C 70.4375 265.605469 70.308594 265.679688 70.183594 265.75 L 64.339844 268.476563 C 64.339844 268.457031 64.316406 268.457031 64.316406 268.4375 C 64.089844 268.5625 63.855469 268.691406 63.636719 268.816406 L 61.574219 269.972656 L 61.550781 269.980469 C 61.242188 270.160156 60.9375 270.328125 60.625 270.5 C 60.480469 270.558594 60.355469 270.636719 60.253906 270.710938 L 57.636719 272.175781 C 57.589844 272.09375 57.546875 272.019531 57.503906 271.945313 C 56.660156 272.28125 55.828125 272.621094 55.328125 273.457031 L 55.304688 273.476563 C 55.15625 273.5625 55.015625 273.632813 54.863281 273.722656 C 54.652344 273.78125 54.511719 273.613281 54.28125 273.753906 C 53.664063 274.101563 53.046875 274.441406 52.433594 274.777344 C 51.390625 275.484375 50.617188 275.261719 49.535156 276.109375 C 49.308594 276.238281 49.078125 276.359375 48.851563 276.5 C 48.457031 276.710938 48.078125 276.921875 47.695313 277.144531 C 47.730469 277.21875 47.777344 277.292969 47.816406 277.363281 C 47.433594 277.574219 47.050781 277.800781 46.667969 278.011719 C 46.414063 278.199219 46.230469 278.179688 46.070313 278.042969 C 45.382813 278.421875 44.695313 278.8125 44 279.203125 C 42.703125 279.933594 41.390625 280.660156 40.085938 281.390625 C 39.773438 281.558594 39.464844 281.742188 39.160156 281.90625 C 38.851563 282.078125 38.542969 282.246094 38.242188 282.425781 C 37.777344 282.195313 35.972656 283.210938 35.925781 283.71875 C 35.707031 283.84375 35.472656 283.96875 35.238281 284.109375 C 34.140625 284.097656 32.679688 285.375 31.414063 285.945313 C 31.304688 286.164063 31.183594 286.390625 30.851563 286.550781 C 30.425781 286.210938 29.304688 287.265625 29.722656 287.785156 C 29.425781 287.890625 29.300781 288.050781 29.230469 288.21875 L 25.0625 291.886719 C 24.757813 292.054688 24.441406 292.234375 24.144531 292.402344 C 24.117188 292.453125 24.070313 292.496094 24.035156 292.550781 L 21.902344 293.921875 C 21.785156 293.945313 21.683594 293.921875 21.601563 293.820313 C 21.316406 293.933594 21.226563 294.105469 21.257813 294.316406 C 20.886719 294.527344 20.5 294.738281 20.117188 294.957031 C 20.046875 294.738281 19.90625 294.792969 19.765625 294.855469 C 19.453125 295.023438 19.132813 295.199219 18.839844 295.375 C 18.101563 295.910156 17.488281 296.007813 16.867188 296.175781 C 16.789063 296.21875 16.703125 296.257813 16.632813 296.3125 C 16.359375 296.597656 16.765625 296.492188 16.882813 296.753906 C 16.660156 296.882813 16.429688 297.019531 16.191406 297.148438 C 16.121094 297.1875 16.050781 297.230469 15.964844 297.273438 C 16.011719 297.929688 14.5625 298.171875 14.019531 298.660156 C 13.472656 298.839844 13.492188 299.15625 13.226563 299.40625 C 13.140625 299.449219 13.066406 299.492188 12.988281 299.535156 C 12.765625 299.664063 12.53125 299.789063 12.296875 299.925781 C 11.5 300.160156 11.589844 300.621094 11.042969 300.921875 C 11.042969 300.921875 9.214844 310.304688 8.3125 311.203125 C 7.675781 311.84375 7.269531 315.816406 7.085938 318.070313 C 6.988281 318.121094 6.894531 318.175781 6.804688 318.230469 C 6.644531 318.3125 6.5 318.398438 6.339844 318.492188 C 6.113281 318.617188 5.886719 318.746094 5.648438 318.871094 C 5.867188 319.441406 6.179688 319.726563 6.519531 319.875 C 6.671875 319.804688 6.824219 319.71875 6.972656 319.621094 C 6.972656 319.621094 7.171875 319.832031 7.480469 320.164063 C 7.753906 320.625 7.8125 321.078125 8.355469 321.09375 C 10.828125 323.710938 15.839844 329.09375 16.734375 330.429688 C 17.136719 331.046875 17.554688 331.785156 17.9375 332.503906 L 17.636719 333.570313 L 19.261719 335.238281 L 21.632813 337.703125 L 22.019531 337.964844 C 22.097656 338.039063 22.1875 338.125 22.261719 338.25 C 22.292969 338.230469 22.335938 338.210938 22.367188 338.199219 L 22.769531 338.476563 C 23.742188 339.46875 24.640625 340.535156 25.074219 341.414063 C 25.015625 341.890625 25.039063 342.328125 25.339844 342.328125 C 25.339844 344.457031 32.925781 348.109375 32.925781 348.109375 C 32.925781 348.109375 33.761719 350.617188 34.898438 353.386719 L 34.898438 353.757813 L 35.269531 354.261719 C 35.496094 354.769531 35.726563 355.277344 35.957031 355.796875 L 35.441406 358.140625 L 36.761719 359.597656 L 37.824219 360.265625 L 39.265625 360.695313 C 39.214844 360.730469 39.164063 360.761719 39.117188 360.78125 C 39.304688 360.9375 39.542969 360.992188 39.785156 360.992188 C 42.144531 362.515625 44.664063 367.324219 45.527344 371.160156 L 45.527344 372.351563 L 46.351563 373.15625 C 46.351563 373.15625 46.363281 373.167969 46.378906 373.167969 C 47.382813 374.371094 48.613281 373.15625 48.613281 373.15625 L 50.359375 375.648438 L 50.589844 376.179688 C 50.5625 376.199219 50.53125 376.199219 50.488281 376.222656 C 50.539063 376.238281 50.589844 376.273438 50.644531 376.292969 L 51.238281 377.667969 L 52.304688 378.863281 C 52.335938 378.925781 52.335938 378.988281 52.367188 379.050781 C 52.410156 379.128906 52.453125 379.199219 52.496094 379.273438 C 52.53125 379.25 52.578125 379.242188 52.609375 379.222656 L 53.851563 380.617188 L 53.054688 383.355469 L 52.261719 384.789063 L 52.398438 385.605469 L 53.234375 387.621094 C 53.234375 387.621094 53.542969 388.285156 53.851563 388.550781 C 53.996094 388.679688 54.734375 388.6875 55.484375 388.65625 C 55.675781 388.847656 55.929688 389.078125 56.101563 389.503906 C 56.851563 389.839844 57.855469 389.269531 58.585938 389.605469 C 58.652344 389.566406 58.730469 389.523438 58.800781 389.492188 L 59.273438 389.605469 C 59.351563 389.660156 59.433594 389.703125 59.53125 389.671875 L 61.902344 388.511719 C 62.113281 388.582031 62.324219 388.617188 62.566406 388.582031 C 62.453125 388.300781 62.777344 388.128906 63.117188 387.96875 C 63.402344 388.257813 63.792969 387.652344 64.210938 387.367188 L 64.375 387.28125 C 64.585938 387.199219 64.792969 387.222656 64.984375 387.515625 C 65.558594 386.902344 66.136719 386.804688 66.46875 386.257813 L 68.558594 385.222656 L 83.140625 375.574219 C 83.4375 376.539063 84.164063 376.007813 84.695313 376.199219 C 85.21875 375.988281 85.371094 375.5 85.558594 375.113281 L 92.292969 373.789063 C 92.269531 373.875 92.597656 373.9375 93.09375 373.882813 C 93.257813 373.800781 93.398438 373.714844 93.550781 373.632813 C 93.789063 373.503906 94.023438 373.378906 94.246094 373.25 C 94.617188 373.089844 95.046875 372.691406 95.289063 372.953125 C 96.136719 373.1875 96.410156 372.289063 97.140625 371.929688 C 98.398438 371.761719 99.355469 371.136719 100.058594 370.441406 L 104.316406 368.507813 L 114.230469 362.957031 C 114.386719 362.875 114.535156 362.789063 114.691406 362.695313 L 116.085938 362.039063 C 116.128906 362.335938 116.0625 362.484375 116.457031 362.609375 C 116.53125 362.578125 116.613281 362.523438 116.691406 362.484375 C 117.25 361.554688 118.792969 362.0625 120.039063 360.90625 C 119.742188 360.601563 119.863281 360.398438 119.964844 360.210938 L 143.5625 349.074219 L 146.085938 347.679688 C 146.734375 347.636719 147.484375 347.445313 148.019531 347.054688 C 147.605469 346.980469 147.089844 347.257813 146.628906 347.382813 L 149.574219 345.765625 L 150.761719 344.953125 L 155.980469 341.875 C 156.484375 341.855469 156.992188 341.738281 157.578125 341.402344 C 157.335938 341.128906 156.890625 341.527344 156.527344 341.6875 C 156.519531 341.644531 156.519531 341.613281 156.519531 341.558594 L 181.984375 326.558594 L 185.097656 324.925781 C 184.996094 325.085938 184.964844 325.265625 185 325.464844 C 185.449219 325.183594 185.566406 324.914063 185.597656 324.664063 L 188.492188 323.152344 C 188.511719 323.160156 188.53125 323.160156 188.558594 323.175781 C 188.597656 323.128906 188.640625 323.089844 188.683594 323.046875 L 196.261719 319.074219 C 196.273438 319.09375 196.289063 319.113281 196.300781 319.144531 C 196.503906 319.074219 196.59375 318.980469 196.640625 318.871094 L 197.433594 318.460938 C 197.441406 318.472656 197.449219 318.480469 197.449219 318.503906 C 197.597656 318.429688 197.707031 318.335938 197.8125 318.261719 L 198.609375 317.835938 C 198.679688 317.816406 198.757813 317.785156 198.832031 317.734375 C 198.871094 317.710938 198.902344 317.6875 198.933594 317.679688 L 200.007813 317.105469 C 200.210938 317.5 200.445313 317.765625 200.726563 317.859375 C 201.523438 317.625 201.441406 317.160156 201.980469 316.855469 C 202.214844 316.730469 202.160156 316.519531 202.3125 316.378906 C 202.625 316.199219 202.9375 316.03125 203.238281 315.851563 C 203.320313 315.808594 203.390625 315.765625 203.472656 315.726563 C 203.621094 315.375 203.667969 315.25 203.636719 315.207031 L 213.558594 310.007813 C 213.859375 309.953125 214.140625 309.945313 214.445313 309.890625 C 214.414063 309.785156 214.339844 309.703125 214.242188 309.648438 L 232.789063 299.925781 C 233.003906 299.84375 233.15625 299.746094 233.304688 299.652344 L 239 296.535156 C 239.160156 296.542969 239.265625 296.511719 239.253906 296.398438 L 246.820313 292.277344 C 247.066406 292.277344 247.394531 292.023438 247.667969 291.894531 C 247.746094 291.855469 247.828125 291.8125 247.90625 291.769531 C 248.109375 291.695313 248.207031 291.589844 248.277344 291.484375 L 249.386719 290.867188 C 249.644531 290.816406 249.914063 290.699219 250.207031 290.480469 C 250.199219 290.46875 250.199219 290.445313 250.195313 290.4375 L 250.648438 290.183594 C 250.589844 290.246094 250.515625 290.300781 250.4375 290.355469 C 251.0625 290.332031 251.628906 289.878906 252.285156 289.320313 C 252.304688 289.304688 252.3125 289.285156 252.328125 289.273438 L 253.371094 288.691406 C 253.515625 288.722656 253.679688 288.671875 253.894531 288.417969 C 253.972656 288.375 254.050781 288.335938 254.125 288.28125 L 254.140625 288.28125 L 255.425781 287.585938 L 255.425781 287.574219 C 255.6875 287.445313 255.945313 287.328125 256.164063 287.183594 L 260.867188 284.675781 C 261.027344 284.6875 261.191406 284.6875 261.402344 284.511719 C 261.335938 284.496094 261.296875 284.488281 261.238281 284.464844 L 301.914063 262.753906 C 302.644531 262.835938 303.132813 262.011719 303.425781 262.203125 C 303.648438 262.074219 303.882813 261.949219 304.113281 261.820313 C 304.089844 261.714844 304.074219 261.644531 304.074219 261.578125 L 312.988281 256.707031 C 313.027344 256.730469 313.070313 256.75 313.109375 256.792969 C 313.179688 256.738281 313.265625 256.695313 313.339844 256.65625 C 313.398438 256.582031 313.453125 256.503906 313.507813 256.421875 L 323.945313 250.726563 C 324.675781 251.097656 325.480469 251.210938 326.429688 250.835938 C 326.589844 250.746094 326.734375 250.652344 326.890625 250.570313 C 326.71875 250.335938 326.730469 250.15625 326.835938 250.019531 L 328.097656 249.703125 C 328.179688 249.722656 328.238281 249.753906 328.269531 249.796875 C 328.351563 249.753906 328.421875 249.710938 328.5 249.671875 L 328.640625 249.671875 C 328.703125 249.679688 328.773438 249.671875 328.832031 249.671875 L 330.148438 249.671875 L 332.402344 248.894531 L 332.472656 248.632813 L 335.902344 247.789063 L 348.046875 239.84375 C 348.085938 239.84375 348.109375 239.851563 348.160156 239.863281 C 348.308594 239.777344 348.464844 239.695313 348.621094 239.609375 C 348.96875 239.3125 349.292969 239.058594 349.617188 238.816406 L 349.621094 238.808594 L 354.050781 236.683594 C 354.203125 236.660156 354.355469 236.628906 354.515625 236.621094 C 354.589844 237.085938 353.410156 237.210938 353.613281 237.71875 C 353.976563 237.558594 354.421875 237.15625 354.664063 237.433594 C 354.738281 237.382813 354.8125 237.335938 354.890625 237.296875 C 354.609375 236.851563 354.796875 236.535156 355.015625 236.21875 L 356.210938 235.648438 C 356.472656 235.773438 356.722656 235.964844 356.972656 236.132813 C 357.046875 236.089844 357.117188 236.046875 357.199219 236.007813 C 357.101563 235.867188 356.820313 235.617188 356.65625 235.4375 L 359.933594 233.859375 L 359.941406 233.871094 C 360.296875 234.496094 361.332031 233.808594 361.453125 233.335938 C 361.523438 233.28125 361.605469 233.238281 361.683594 233.195313 C 361.804688 233.070313 361.953125 232.953125 362.097656 232.824219 L 365.359375 231.25 L 370.136719 228.703125 C 370.296875 228.808594 370.488281 228.832031 370.703125 228.746094 C 370.855469 228.578125 370.972656 228.386719 371.074219 228.195313 L 373.105469 227.109375 C 373.359375 227.34375 373.667969 227.40625 374.054688 227.171875 C 374.582031 227.328125 375.753906 226.664063 375.90625 226.148438 C 376.171875 226.421875 376.398438 226.371094 376.28125 226.824219 C 377.6875 225.957031 376.878906 226.359375 377.292969 225.367188 C 377.578125 225.25 377.921875 224.964844 378.105469 225.207031 C 378.765625 225.046875 379.171875 224.898438 379.363281 224.203125 C 379.152344 224.253906 378.980469 224.171875 378.878906 223.878906 C 379.265625 223.632813 379.617188 223.527344 379.929688 223.589844 C 380.074219 223.507813 380.234375 223.410156 380.386719 223.335938 C 380.265625 223.1875 380.207031 223.054688 380.175781 222.933594 L 384.867188 220.164063 L 384.886719 220.15625 C 386.179688 220.082031 387.535156 218.929688 387.949219 217.910156 C 387.992188 217.746094 388.007813 217.628906 388.015625 217.523438 L 392.144531 214.054688 C 392.285156 214.003906 392.453125 213.933594 392.617188 213.808594 C 392.699219 213.761719 392.769531 213.722656 392.847656 213.671875 C 393.078125 213.550781 393.3125 213.414063 393.53125 213.289063 C 393.703125 213.179688 393.628906 213.023438 393.5625 212.855469 L 394.210938 212.316406 C 394.351563 212.238281 394.445313 212.15625 394.527344 212.0625 L 395.445313 211.324219 L 395.457031 211.3125 C 395.6875 211.1875 395.925781 211.058594 396.152344 210.925781 C 396.144531 210.855469 396.171875 210.804688 396.175781 210.742188 L 409.050781 200.429688 C 409.441406 200.175781 409.695313 200.4375 410.101563 200.136719 C 410.289063 199.996094 410.222656 199.78125 410.09375 199.5625 L 410.660156 199.085938 C 410.902344 198.984375 411.078125 198.875 411.136719 198.695313 L 419.960938 191.335938 C 419.972656 191.328125 419.984375 191.320313 419.992188 191.3125 C 420.15625 191.222656 420.308594 191.148438 420.457031 191.054688 C 420.78125 190.890625 420.90625 190.667969 421.027344 190.445313 L 422.453125 188.160156 L 422.472656 188.148438 C 422.527344 188.101563 422.539063 188.042969 422.554688 187.988281 L 425.011719 184.027344 L 426.191406 182.8125 C 426.347656 182.726563 426.5 182.644531 426.597656 182.546875 C 426.683594 182.507813 426.753906 182.453125 426.832031 182.417969 C 426.765625 182.289063 426.785156 182.1875 426.871094 182.09375 L 426.878906 182.09375 C 427.117188 181.824219 427.84375 181.691406 428.089844 181.414063 C 428.054688 181.339844 428.003906 181.269531 427.96875 181.191406 C 428.109375 181.113281 428.265625 181.015625 428.425781 180.929688 C 428.574219 180.847656 428.726563 180.765625 428.886719 180.675781 C 428.753906 180.382813 428.648438 180.097656 429.097656 179.957031 C 429.074219 179.914063 429.050781 179.882813 429.035156 179.847656 L 429.988281 178.859375 L 435.59375 177.519531 L 435.871094 177.464844 C 435.898438 177.511719 435.925781 177.566406 435.957031 177.613281 C 436.207031 177.554688 436.335938 177.453125 436.421875 177.355469 L 437.117188 177.222656 C 437.164063 177.507813 437.179688 177.644531 437.722656 177.523438 C 438.003906 177.433594 438.222656 177.574219 438.4375 177.71875 C 438.683594 177.574219 439.28125 177.464844 439.777344 177.324219 L 439.785156 177.328125 L 439.800781 177.316406 C 439.953125 177.277344 440.097656 177.234375 440.222656 177.179688 L 441.347656 176.789063 C 441.640625 176.871094 441.890625 176.734375 442.109375 176.523438 L 447.695313 176.417969 L 451.945313 176.433594 L 452.785156 176.273438 C 453.105469 176.34375 453.839844 176.070313 454.40625 175.957031 L 454.554688 175.929688 C 454.882813 175.878906 455.117188 175.902344 455.117188 176.144531 C 455.1875 176.050781 455.222656 175.921875 455.226563 175.796875 L 456.867188 175.46875 C 457.164063 175.183594 457.285156 174.839844 457.382813 174.496094 L 458.136719 173.027344 L 458.410156 172.820313 L 459.488281 170.109375 C 459.8125 169.917969 460.015625 169.691406 459.792969 169.351563 C 460.058594 169.105469 459.933594 168.753906 460.234375 168.515625 C 460.691406 168.25 460.183594 167.722656 460.898438 167.542969 C 460.761719 167.449219 460.613281 167.300781 460.476563 167.148438 L 460.960938 165.5625 L 458.566406 160.648438 L 458.566406 152.148438 L 458.484375 141.980469 L 458.484375 141.917969 "/>
<path style=" stroke:none;fill-rule:nonzero;fill:rgb(100%,88.198853%,0%);fill-opacity:1;" d="M 238.039063 27.890625 L 238.039063 27.855469 L 238.054688 27.855469 C 238.054688 27.867188 238.046875 27.878906 238.039063 27.890625 "/>
<path style=" stroke:none;fill-rule:nonzero;fill:rgb(100%,88.198853%,0%);fill-opacity:1;" d="M 304.273438 346.3125 C 304.296875 346.253906 304.300781 346.210938 304.324219 346.15625 C 304.378906 346.167969 304.433594 346.199219 304.484375 346.222656 C 304.414063 346.253906 304.34375 346.28125 304.273438 346.3125 "/>
<path style=" stroke:none;fill-rule:nonzero;fill:rgb(11.799622%,7.499695%,5.899048%);fill-opacity:1;" d="M 142.226563 224.445313 L 137.03125 227.328125 L 121.476563 199.3125 L 126.675781 196.429688 L 133.335938 208.4375 L 139.242188 205.164063 L 132.574219 193.15625 L 137.867188 190.21875 L 153.417969 218.242188 L 148.125 221.175781 L 141.464844 209.164063 L 135.5625 212.4375 "/>
<path style=" stroke:none;fill-rule:nonzero;fill:rgb(11.799622%,7.499695%,5.899048%);fill-opacity:1;" d="M 153.390625 197.054688 L 160.515625 193.105469 L 162.738281 197.109375 L 155.605469 201.0625 L 160.164063 209.261719 L 169.132813 204.285156 L 171.359375 208.289063 L 157.191406 216.148438 L 141.640625 188.132813 L 155.804688 180.277344 L 158.019531 184.28125 L 149.058594 189.257813 "/>
<path style=" stroke:none;fill-rule:nonzero;fill:rgb(11.799622%,7.499695%,5.899048%);fill-opacity:1;" d="M 183.832031 187.714844 L 185.890625 191.433594 C 188.386719 195.917969 187.160156 199.945313 182.066406 202.773438 C 176.964844 205.601563 172.894531 204.507813 170.40625 200.023438 L 162.324219 185.453125 C 159.835938 180.976563 161.050781 176.945313 166.152344 174.113281 C 171.257813 171.289063 175.316406 172.382813 177.808594 176.863281 L 179.320313 179.589844 L 174.40625 182.304688 L 172.742188 179.316406 C 171.628906 177.308594 170.167969 177.125 168.519531 178.035156 C 166.863281 178.960938 166.25 180.285156 167.359375 182.296875 L 175.757813 197.425781 C 176.871094 199.425781 178.304688 199.566406 179.957031 198.652344 C 181.613281 197.734375 182.246094 196.445313 181.136719 194.4375 L 178.917969 190.429688 "/>
<path style=" stroke:none;fill-rule:nonzero;fill:rgb(11.799622%,7.499695%,5.899048%);fill-opacity:1;" d="M 197.980469 193.527344 L 192.792969 196.402344 L 177.238281 168.386719 L 182.425781 165.507813 L 189.09375 177.519531 L 195.003906 174.242188 L 188.335938 162.242188 L 193.613281 159.300781 L 209.171875 187.316406 L 203.890625 190.253906 L 197.222656 178.246094 L 191.320313 181.523438 "/>
<path style=" stroke:none;fill-rule:nonzero;fill:rgb(11.799622%,7.499695%,5.899048%);fill-opacity:1;" d="M 214.140625 176.132813 C 215.246094 178.140625 216.710938 178.320313 218.367188 177.398438 C 220.015625 176.488281 220.636719 175.148438 219.53125 173.15625 L 211.121094 158.019531 C 210.003906 156.027344 208.550781 155.835938 206.902344 156.753906 C 205.246094 157.675781 204.628906 159.003906 205.738281 161.011719 Z M 200.703125 164.171875 C 198.214844 159.683594 199.578125 155.582031 204.671875 152.753906 C 209.773438 149.929688 213.988281 150.941406 216.472656 155.425781 L 224.5625 169.996094 C 227.046875 174.476563 225.6875 178.585938 220.585938 181.40625 C 215.488281 184.238281 211.28125 183.21875 208.789063 178.738281 "/>
<path style=" stroke:none;fill-rule:nonzero;fill:rgb(11.799622%,7.499695%,5.899048%);fill-opacity:1;" d="M 235.15625 151.710938 L 242.289063 147.753906 L 244.507813 151.753906 L 237.382813 155.710938 L 241.933594 163.917969 L 250.902344 158.941406 L 253.128906 162.941406 L 238.960938 170.800781 L 223.410156 142.785156 L 237.574219 134.929688 L 239.796875 138.929688 L 230.820313 143.902344 "/>
<path style=" stroke:none;fill-rule:nonzero;fill:rgb(11.799622%,7.499695%,5.899048%);fill-opacity:1;" d="M 249.695313 138.304688 L 260.960938 158.601563 L 256.289063 161.191406 L 240.734375 133.167969 L 247.25 129.554688 L 261.894531 143.371094 L 252.585938 126.59375 L 257.210938 124.035156 L 272.765625 152.050781 L 267.433594 155.007813 "/>
<path style=" stroke:none;fill-rule:nonzero;fill:rgb(11.799622%,7.499695%,5.899048%);fill-opacity:1;" d="M 120.515625 325.929688 L 122.648438 324.746094 C 124.242188 323.863281 125.109375 322.6875 125.257813 321.21875 C 125.410156 319.75 124.847656 317.859375 123.5625 315.542969 C 122.050781 312.816406 120.621094 311.074219 119.273438 310.28125 C 117.929688 309.511719 116.449219 309.5625 114.824219 310.464844 L 112.609375 311.6875 Z M 108.757813 304.753906 L 110.378906 303.859375 C 112.199219 302.84375 113.167969 301.59375 113.289063 300.105469 C 113.414063 298.613281 112.71875 296.511719 111.203125 293.796875 C 109.886719 291.410156 108.515625 289.886719 107.117188 289.230469 C 105.710938 288.578125 104.128906 288.738281 102.363281 289.71875 L 100.871094 290.542969 Z M 76.695313 294.726563 L 106.894531 277.988281 C 111.773438 275.273438 116.222656 274.230469 120.214844 274.863281 C 124.089844 275.476563 127.167969 277.84375 129.441406 281.929688 C 131.875 286.316406 132 290.257813 129.804688 293.742188 C 129.105469 294.824219 127.742188 296.378906 125.710938 298.417969 C 129.175781 297.285156 132.128906 296.957031 134.585938 297.421875 C 138.140625 298.128906 140.980469 300.410156 143.128906 304.265625 C 146.121094 309.671875 146.101563 314.753906 143.066406 319.53125 C 141.109375 322.574219 138.238281 325.128906 134.453125 327.230469 L 104.09375 344.0625 C 104.113281 343.226563 103.851563 342.289063 103.308594 341.242188 L 78.660156 296.851563 C 78.019531 295.761719 77.363281 295.054688 76.695313 294.726563 "/>
<path style=" stroke:none;fill-rule:nonzero;fill:rgb(11.799622%,7.499695%,5.899048%);fill-opacity:1;" d="M 162.65625 254.964844 C 159.042969 256.960938 157.203125 259.898438 157.144531 263.773438 C 157.085938 267.65625 158.808594 272.75 162.316406 279.054688 C 165.828125 285.371094 169.238281 289.65625 172.566406 291.90625 C 175.929688 294.210938 179.53125 294.292969 183.367188 292.15625 C 186.972656 290.160156 188.808594 287.222656 188.867188 283.347656 C 188.929688 279.46875 187.203125 274.363281 183.683594 268.015625 C 180.125 261.609375 176.703125 257.328125 173.425781 255.175781 C 170.09375 252.988281 166.503906 252.910156 162.65625 254.964844 M 158.800781 248.019531 C 167.414063 243.242188 175.304688 241.046875 182.46875 241.414063 C 191.574219 241.882813 198.761719 246.867188 204.03125 256.359375 C 208.929688 265.171875 209.640625 273.351563 206.160156 280.894531 C 202.925781 287.847656 196.363281 294.082031 186.472656 299.554688 C 179.710938 303.316406 173.84375 305.421875 168.910156 305.90625 C 162.488281 306.53125 156.8125 305.199219 151.867188 301.925781 C 147.980469 299.34375 144.605469 295.476563 141.722656 290.300781 C 140.226563 287.597656 139.132813 284.6875 138.421875 281.582031 C 137.722656 278.472656 137.535156 275.640625 137.867188 273.097656 C 139.082031 263.578125 146.0625 255.207031 158.800781 248.019531 "/>
<path style=" stroke:none;fill-rule:nonzero;fill:rgb(11.799622%,7.499695%,5.899048%);fill-opacity:1;" d="M 260.765625 257.183594 L 224.261719 277.429688 C 224.3125 276.636719 224.0625 275.707031 223.492188 274.628906 L 198.839844 230.21875 C 198.21875 229.171875 197.5625 228.460938 196.871094 228.089844 L 217.679688 216.542969 C 217.664063 217.3125 217.933594 218.230469 218.492188 219.3125 L 240.386719 258.746094 L 252.539063 252.003906 C 254.453125 250.902344 255.726563 249.976563 256.332031 249.183594 "/>
<path style=" stroke:none;fill-rule:nonzero;fill:rgb(11.799622%,7.499695%,5.899048%);fill-opacity:1;" d="M 237.34375 205.636719 L 258.195313 194.074219 C 258.144531 194.859375 258.398438 195.789063 258.964844 196.867188 L 283.621094 241.289063 C 284.238281 242.324219 284.902344 243.042969 285.585938 243.414063 L 264.734375 254.984375 C 264.78125 254.191406 264.527344 253.265625 263.96875 252.183594 L 239.300781 207.765625 C 238.6875 206.726563 238.03125 206.019531 237.34375 205.636719 "/>
<path style=" stroke:none;fill-rule:nonzero;fill:rgb(11.799622%,7.499695%,5.899048%);fill-opacity:1;" d="M 260.15625 192.988281 L 282.457031 180.621094 C 282.554688 181.261719 282.664063 181.703125 282.804688 181.933594 C 282.976563 182.253906 283.316406 182.632813 283.824219 183.078125 L 310.96875 207.359375 L 305.632813 171.03125 C 305.527344 170.363281 305.378906 169.863281 305.1875 169.519531 C 305.058594 169.285156 304.742188 168.953125 304.246094 168.535156 L 314.953125 162.597656 C 314.632813 163.5625 314.550781 164.679688 314.695313 165.960938 L 322.855469 219.523438 C 323.003906 220.519531 323.191406 221.25 323.449219 221.703125 C 323.507813 221.804688 323.613281 221.972656 323.796875 222.226563 L 305.328125 232.46875 C 305.199219 232.097656 305.109375 231.863281 305.058594 231.769531 C 304.8125 231.335938 304.339844 230.816406 303.625 230.195313 L 263.03125 194.652344 C 262.0625 193.832031 261.101563 193.28125 260.15625 192.988281 "/>
<path style=" stroke:none;fill-rule:nonzero;fill:rgb(11.799622%,7.499695%,5.899048%);fill-opacity:1;" d="M 316.828125 161.554688 L 337.683594 149.988281 C 337.632813 150.773438 337.890625 151.703125 338.449219 152.78125 L 363.109375 197.199219 C 363.730469 198.25 364.382813 198.960938 365.074219 199.328125 L 344.222656 210.894531 C 344.269531 210.105469 344.019531 209.179688 343.453125 208.097656 L 318.796875 163.683594 C 318.175781 162.640625 317.523438 161.933594 316.828125 161.554688 "/>
<path style=" stroke:none;fill-rule:nonzero;fill:rgb(11.799622%,7.499695%,5.899048%);fill-opacity:1;" d="M 374.957031 167.804688 L 385.359375 162.03125 L 372.355469 150.570313 Z M 375.972656 176.96875 L 377.4375 189.257813 C 377.566406 190.292969 377.746094 191.011719 377.976563 191.425781 C 378.027344 191.519531 378.175781 191.691406 378.425781 191.925781 L 367.886719 197.765625 C 368.21875 196.824219 368.320313 195.707031 368.1875 194.382813 L 361.820313 139.824219 C 361.703125 138.753906 361.535156 138.007813 361.3125 137.601563 C 361.257813 137.503906 361.125 137.332031 360.925781 137.101563 L 377.429688 127.953125 C 377.515625 128.1875 377.582031 128.339844 377.625 128.40625 C 377.835938 128.792969 378.410156 129.363281 379.347656 130.105469 L 422.730469 164.140625 C 423.796875 164.933594 424.863281 165.414063 425.925781 165.585938 L 403.492188 178.019531 C 403.390625 177.699219 403.316406 177.492188 403.261719 177.398438 C 402.988281 176.910156 402.503906 176.367188 401.792969 175.746094 L 392.394531 167.871094 "/>
</g>
</svg>
