<svg fill="none" height="24" viewBox="0 0 24 24" width="24" xmlns="http://www.w3.org/2000/svg"><path d="m12.0002 15.25c-2.18772 0-4.23232.3389-5.93492.9289-1.68861.5851-3.10565 1.4404-3.95921 2.5219-.26588.3369-.40884.7258-.40119 1.1312.00755.3997.16007.7553.38095 1.0378.4321.5527 1.15887.8802 1.91441.8802h15.99996c.7556 0 1.4823-.3275 1.9145-.8802.2208-.2825.3734-.6381.3809-1.0378.0076-.4054-.1353-.7943-.4012-1.1312-.8536-1.0815-2.2706-1.9368-3.9592-2.5219-1.7026-.59-3.7472-.9289-5.935-.9289z" fill="#5e94ff"/><path d="m11.999 2.25c-3.17561 0-5.74998 2.57436-5.74998 5.75 0 3.1756 2.57437 5.75 5.74998 5.75 3.1757 0 5.75-2.5744 5.75-5.75 0-3.17564-2.5743-5.75-5.75-5.75z" fill="#4dc4ff"/><g clip-rule="evenodd" fill-rule="evenodd"><path d="m11.999 2.25v11.5c-3.17561 0-5.74998-2.5744-5.74998-5.75 0-3.17564 2.57437-5.75 5.74998-5.75z" fill="#45b0e5"/><path d="m11.999 15.25v6.5h-7.99876c-.75554 0-1.48231-.3275-1.91441-.8802-.22088-.2825-.3734-.6381-.38095-1.0378-.00765-.4054.13531-.7943.40119-1.1312.85356-1.0815 2.2706-1.9368 3.95921-2.5219 1.70229-.5899 3.74645-.9288 5.93372-.9289z" fill="#5485e5"/></g></svg>